<svg width="2819" height="1512" viewBox="0 0 2819 1512" fill="none" xmlns="http://www.w3.org/2000/svg">
<circle cx="530.005" cy="812.661" r="142.251" fill="#FFC700"/>
<path d="M1445.94 1280.29C1445.94 1322.48 1412.92 1356.69 1372.18 1356.69V1203.9C1412.92 1203.9 1445.94 1238.1 1445.94 1280.29Z" fill="#BB9200"/>
<path d="M1498.63 1306.63C1498.63 1348.83 1465.61 1383.03 1424.87 1383.03V1230.24C1465.61 1230.24 1498.63 1264.44 1498.63 1306.63Z" fill="#BB9200"/>
<path d="M1482.82 1343.51C1482.82 1385.71 1449.8 1419.91 1409.06 1419.91V1267.12C1449.8 1267.12 1482.82 1301.32 1482.82 1343.51Z" fill="#BB9200"/>
<path d="M1498.63 1380.39C1498.63 1422.59 1465.61 1456.79 1424.87 1456.79V1304C1465.61 1304 1498.63 1338.2 1498.63 1380.39Z" fill="#BB9200"/>
<path d="M1445.94 1412.01C1445.94 1454.2 1412.92 1488.4 1372.18 1488.4V1335.61C1412.92 1335.61 1445.94 1369.81 1445.94 1412.01Z" fill="#BB9200"/>
<path d="M1451.21 748.166C1451.21 790.357 1418.19 824.56 1377.45 824.56V671.771C1418.19 671.771 1451.21 705.974 1451.21 748.166Z" fill="#BB9200"/>
<rect x="1362.03" y="830.761" width="50.253" height="157.55" transform="rotate(-38 1362.03 830.761)" fill="#BB9200"/>
<path d="M1235.2 814.023C1235.2 892.586 1298.89 956.274 1377.45 956.274V671.771C1298.89 671.771 1235.2 735.459 1235.2 814.023Z" fill="#FFC700"/>
<path d="M1861.85 748.166C1861.85 790.357 1828.83 824.56 1788.09 824.56H1732.45L1748.09 671.771H1788.09C1828.83 671.771 1861.85 705.974 1861.85 748.166Z" fill="#BB9200"/>
<rect x="1736.1" y="830.761" width="50.253" height="157.55" transform="rotate(-38 1736.1 830.761)" fill="#BB9200"/>
<path d="M1609.27 814.023C1609.27 892.586 1672.96 956.274 1751.52 956.274V671.771C1672.96 671.771 1609.27 735.459 1609.27 814.023Z" fill="#FFC700"/>
<rect x="897.217" y="782.046" width="67.8675" height="219.37" transform="rotate(-38 897.217 782.046)" fill="#BB9200"/>
<path d="M808.446 814.023C808.446 892.586 872.134 956.274 950.697 956.274V671.771C872.134 671.771 808.446 735.459 808.446 814.023Z" fill="#FFC700"/>
<path d="M1229.93 1346.15C1229.93 1424.71 1293.62 1488.4 1372.18 1488.4C1372.18 1488.4 1285.25 1433.08 1282.62 1346.15C1279.98 1259.22 1372.18 1203.9 1372.18 1203.9C1293.62 1203.9 1229.93 1267.59 1229.93 1346.15Z" fill="#FFC700"/>
<path d="M2127.16 730.39C2127.16 734.815 2126.38 738.695 2124.82 742.029C2123.25 745.363 2121.01 747.935 2118.09 749.746C2115.18 751.557 2111.85 752.463 2108.08 752.463C2104.36 752.463 2101.04 751.568 2098.11 749.777C2095.19 747.987 2092.93 745.435 2091.32 742.121C2089.72 738.787 2088.9 734.959 2088.88 730.637V728.415C2088.88 723.99 2089.67 720.1 2091.26 716.746C2092.86 713.37 2095.12 710.788 2098.02 708.997C2100.94 707.186 2104.28 706.281 2108.02 706.281C2111.77 706.281 2115.09 707.186 2117.99 708.997C2120.92 710.788 2123.17 713.37 2124.75 716.746C2126.36 720.1 2127.16 723.98 2127.16 728.384V730.39ZM2117.78 728.353C2117.78 723.64 2116.93 720.059 2115.25 717.61C2113.56 715.161 2111.15 713.936 2108.02 713.936C2104.91 713.936 2102.52 715.151 2100.83 717.579C2099.14 719.987 2098.29 723.527 2098.27 728.199V730.39C2098.27 734.98 2099.11 738.54 2100.8 741.072C2102.49 743.603 2104.91 744.869 2108.08 744.869C2111.19 744.869 2113.58 743.654 2115.25 741.226C2116.91 738.777 2117.76 735.217 2117.78 730.545V728.353ZM2152.07 726.809C2150.86 726.645 2149.79 726.562 2148.86 726.562C2145.49 726.562 2143.28 727.705 2142.23 729.989V751.845H2133.31V718.444H2141.73L2141.98 722.426C2143.77 719.359 2146.25 717.826 2149.42 717.826C2150.41 717.826 2151.33 717.96 2152.2 718.227L2152.07 726.809ZM2172.48 727.149L2181.83 706.898H2191.96L2177.2 735.546V751.845H2167.79V735.546L2153.03 706.898H2163.19L2172.48 727.149ZM2192.05 734.836C2192.05 731.522 2192.69 728.569 2193.97 725.976C2195.24 723.383 2197.07 721.376 2199.46 719.956C2201.87 718.536 2204.66 717.826 2207.83 717.826C2212.33 717.826 2216.01 719.205 2218.85 721.963C2221.71 724.721 2223.3 728.466 2223.63 733.2L2223.69 735.484C2223.69 740.609 2222.26 744.725 2219.4 747.832C2216.54 750.919 2212.7 752.463 2207.89 752.463C2203.07 752.463 2199.22 750.919 2196.34 747.832C2193.48 744.745 2192.05 740.547 2192.05 735.237V734.836ZM2200.97 735.484C2200.97 738.653 2201.57 741.082 2202.76 742.77C2203.96 744.437 2205.67 745.27 2207.89 745.27C2210.05 745.27 2211.74 744.447 2212.95 742.8C2214.17 741.133 2214.77 738.479 2214.77 734.836C2214.77 731.728 2214.17 729.32 2212.95 727.612C2211.74 725.904 2210.03 725.05 2207.83 725.05C2205.65 725.05 2203.96 725.904 2202.76 727.612C2201.57 729.3 2200.97 731.924 2200.97 735.484ZM2239.04 744.406H2258.7V751.845H2229.78V706.898H2239.04V744.406ZM2126.02 804.823C2126.02 809.227 2125.28 813.075 2123.8 816.368C2122.32 819.64 2120.22 822.141 2117.5 823.87C2114.78 825.598 2111.61 826.463 2107.99 826.463C2104.45 826.463 2101.31 825.598 2098.58 823.87C2095.84 822.12 2093.71 819.64 2092.19 816.43C2090.68 813.199 2089.91 809.463 2089.87 805.224V801.983C2089.87 797.661 2090.62 793.843 2092.12 790.53C2093.63 787.216 2095.75 784.685 2098.48 782.935C2101.24 781.165 2104.39 780.281 2107.93 780.281C2111.53 780.281 2114.7 781.155 2117.44 782.905C2120.2 784.633 2122.32 787.154 2123.8 790.468C2125.28 793.761 2126.02 797.599 2126.02 801.983V804.823ZM2120.12 801.921C2120.12 796.59 2119.05 792.505 2116.91 789.665C2114.77 786.805 2111.78 785.374 2107.93 785.374C2104.18 785.374 2101.23 786.805 2099.07 789.665C2096.93 792.505 2095.83 796.457 2095.77 801.519V804.823C2095.77 809.988 2096.85 814.053 2099.01 817.016C2101.19 819.959 2104.18 821.431 2107.99 821.431C2111.82 821.431 2114.78 820.042 2116.88 817.263C2118.98 814.465 2120.06 810.462 2120.12 805.255V801.921ZM2150.16 797.568C2149.3 797.424 2148.36 797.352 2147.35 797.352C2143.61 797.352 2141.06 798.947 2139.73 802.137V825.845H2134.02V792.444H2139.57L2139.66 796.302C2141.54 793.318 2144.19 791.826 2147.63 791.826C2148.74 791.826 2149.58 791.97 2150.16 792.258V797.568ZM2153.46 808.867C2153.46 803.66 2154.67 799.523 2157.08 796.457C2159.48 793.37 2162.67 791.826 2166.65 791.826C2170.72 791.826 2173.9 793.267 2176.18 796.148L2176.46 792.444H2181.68V825.043C2181.68 829.365 2180.39 832.771 2177.82 835.261C2175.27 837.751 2171.83 838.996 2167.51 838.996C2165.1 838.996 2162.75 838.482 2160.44 837.453C2158.14 836.424 2156.38 835.014 2155.16 833.224L2158.13 829.797C2160.57 832.822 2163.57 834.335 2167.11 834.335C2169.89 834.335 2172.05 833.553 2173.59 831.989C2175.16 830.425 2175.94 828.222 2175.94 825.382V822.511C2173.65 825.146 2170.54 826.463 2166.58 826.463C2162.67 826.463 2159.5 824.888 2157.08 821.74C2154.67 818.591 2153.46 814.3 2153.46 808.867ZM2159.21 809.515C2159.21 813.281 2159.98 816.245 2161.52 818.406C2163.06 820.546 2165.23 821.616 2168 821.616C2171.61 821.616 2174.25 819.98 2175.94 816.708V801.458C2174.19 798.268 2171.56 796.673 2168.07 796.673C2165.29 796.673 2163.12 797.753 2161.55 799.914C2159.99 802.075 2159.21 805.275 2159.21 809.515ZM2210.94 825.845C2210.62 825.187 2210.35 824.014 2210.14 822.326C2207.49 825.084 2204.32 826.463 2200.63 826.463C2197.34 826.463 2194.63 825.537 2192.52 823.685C2190.42 821.812 2189.37 819.445 2189.37 816.584C2189.37 813.106 2190.68 810.41 2193.32 808.496C2195.97 806.562 2199.7 805.594 2204.49 805.594H2210.05V802.97C2210.05 800.974 2209.45 799.389 2208.26 798.216C2207.07 797.023 2205.31 796.426 2202.98 796.426C2200.94 796.426 2199.23 796.94 2197.86 797.969C2196.48 798.998 2195.79 800.243 2195.79 801.705H2190.05C2190.05 800.038 2190.63 798.432 2191.81 796.889C2193 795.325 2194.6 794.09 2196.62 793.184C2198.66 792.279 2200.89 791.826 2203.32 791.826C2207.17 791.826 2210.18 792.793 2212.36 794.728C2214.55 796.642 2215.68 799.287 2215.76 802.662V818.035C2215.76 821.102 2216.15 823.54 2216.93 825.352V825.845H2210.94ZM2201.47 821.493C2203.26 821.493 2204.96 821.03 2206.56 820.104C2208.17 819.177 2209.33 817.973 2210.05 816.492V809.638H2205.57C2198.58 809.638 2195.08 811.686 2195.08 815.782C2195.08 817.572 2195.67 818.972 2196.87 819.98C2198.06 820.988 2199.59 821.493 2201.47 821.493ZM2230.12 792.444L2230.3 796.642C2232.85 793.431 2236.19 791.826 2240.3 791.826C2247.36 791.826 2250.92 795.808 2250.98 803.773V825.845H2245.27V803.742C2245.25 801.334 2244.7 799.554 2243.61 798.402C2242.54 797.249 2240.86 796.673 2238.57 796.673C2236.72 796.673 2235.1 797.167 2233.7 798.155C2232.3 799.142 2231.21 800.439 2230.42 802.044V825.845H2224.71V792.444H2230.12ZM2265.8 825.845H2260.09V792.444H2265.8V825.845ZM2259.63 783.584C2259.63 782.658 2259.91 781.876 2260.46 781.238C2261.04 780.6 2261.88 780.281 2262.99 780.281C2264.1 780.281 2264.95 780.6 2265.52 781.238C2266.1 781.876 2266.39 782.658 2266.39 783.584C2266.39 784.51 2266.1 785.282 2265.52 785.899C2264.95 786.516 2264.1 786.825 2262.99 786.825C2261.88 786.825 2261.04 786.516 2260.46 785.899C2259.91 785.282 2259.63 784.51 2259.63 783.584ZM2294.42 816.986C2294.42 815.442 2293.83 814.248 2292.66 813.405C2291.51 812.54 2289.48 811.799 2286.58 811.182C2283.7 810.565 2281.4 809.824 2279.69 808.959C2278.01 808.095 2276.75 807.066 2275.93 805.872C2275.12 804.679 2274.72 803.259 2274.72 801.612C2274.72 798.875 2275.88 796.56 2278.18 794.666C2280.51 792.773 2283.47 791.826 2287.07 791.826C2290.86 791.826 2293.92 792.804 2296.27 794.759C2298.64 796.714 2299.82 799.214 2299.82 802.26H2294.08C2294.08 800.696 2293.41 799.348 2292.07 798.216C2290.76 797.084 2289.09 796.518 2287.07 796.518C2284.99 796.518 2283.37 796.971 2282.19 797.877C2281.02 798.782 2280.43 799.966 2280.43 801.427C2280.43 802.806 2280.98 803.845 2282.07 804.545C2283.16 805.245 2285.13 805.913 2287.97 806.551C2290.83 807.189 2293.14 807.951 2294.91 808.836C2296.68 809.721 2297.99 810.791 2298.83 812.046C2299.7 813.281 2300.13 814.794 2300.13 816.584C2300.13 819.568 2298.94 821.966 2296.55 823.777C2294.16 825.568 2291.06 826.463 2287.26 826.463C2284.58 826.463 2282.21 825.99 2280.16 825.043C2278.1 824.096 2276.48 822.779 2275.31 821.091C2274.16 819.383 2273.58 817.541 2273.58 815.566H2279.29C2279.4 817.48 2280.16 819.002 2281.58 820.134C2283.02 821.246 2284.91 821.801 2287.26 821.801C2289.42 821.801 2291.15 821.369 2292.44 820.505C2293.76 819.62 2294.42 818.447 2294.42 816.986ZM2321.43 826.463C2316.9 826.463 2313.22 824.981 2310.38 822.018C2307.54 819.033 2306.12 815.051 2306.12 810.071V809.021C2306.12 805.708 2306.75 802.754 2308 800.161C2309.28 797.547 2311.05 795.51 2313.31 794.049C2315.6 792.567 2318.07 791.826 2320.72 791.826C2325.06 791.826 2328.44 793.256 2330.85 796.117C2333.25 798.978 2334.46 803.073 2334.46 808.404V810.781H2311.83C2311.91 814.073 2312.87 816.739 2314.7 818.776C2316.55 820.793 2318.9 821.801 2321.74 821.801C2323.76 821.801 2325.46 821.39 2326.86 820.567C2328.26 819.743 2329.49 818.653 2330.54 817.294L2334.03 820.011C2331.23 824.312 2327.03 826.463 2321.43 826.463ZM2320.72 796.518C2318.42 796.518 2316.48 797.362 2314.92 799.05C2313.35 800.717 2312.39 803.063 2312.01 806.088H2328.75V805.656C2328.58 802.754 2327.8 800.511 2326.4 798.926C2325 797.321 2323.11 796.518 2320.72 796.518ZM2371.38 803.464L2383.11 780.898H2389.84L2374.34 809.083V825.845H2368.42V809.083L2352.92 780.898H2359.71L2371.38 803.464ZM2391.2 808.836C2391.2 805.564 2391.84 802.621 2393.11 800.007C2394.41 797.393 2396.2 795.376 2398.48 793.956C2400.79 792.536 2403.41 791.826 2406.36 791.826C2410.9 791.826 2414.58 793.401 2417.38 796.549C2420.2 799.698 2421.61 803.886 2421.61 809.114V809.515C2421.61 812.767 2420.98 815.689 2419.72 818.282C2418.49 820.855 2416.71 822.861 2414.38 824.302C2412.08 825.743 2409.42 826.463 2406.42 826.463C2401.89 826.463 2398.22 824.888 2395.4 821.74C2392.6 818.591 2391.2 814.423 2391.2 809.237V808.836ZM2396.94 809.515C2396.94 813.219 2397.79 816.193 2399.5 818.437C2401.23 820.68 2403.54 821.801 2406.42 821.801C2409.32 821.801 2411.62 820.669 2413.33 818.406C2415.04 816.121 2415.89 812.931 2415.89 808.836C2415.89 805.172 2415.02 802.209 2413.27 799.945C2411.54 797.661 2409.24 796.518 2406.36 796.518C2403.54 796.518 2401.26 797.64 2399.53 799.883C2397.8 802.127 2396.94 805.337 2396.94 809.515ZM2449.39 822.542C2447.17 825.156 2443.9 826.463 2439.6 826.463C2436.04 826.463 2433.33 825.434 2431.45 823.376C2429.6 821.297 2428.66 818.231 2428.64 814.176V792.444H2434.35V814.022C2434.35 819.085 2436.41 821.616 2440.53 821.616C2444.89 821.616 2447.79 819.99 2449.23 816.739V792.444H2454.95V825.845H2449.51L2449.39 822.542ZM2479.8 797.568C2478.93 797.424 2478 797.352 2476.99 797.352C2473.24 797.352 2470.7 798.947 2469.36 802.137V825.845H2463.65V792.444H2469.21L2469.3 796.302C2471.17 793.318 2473.83 791.826 2477.26 791.826C2478.38 791.826 2479.22 791.97 2479.8 792.258V797.568ZM2507.61 820.999H2528.91V825.845H2501.65V780.898H2507.61V820.999ZM2540.98 825.845H2535.27V792.444H2540.98V825.845ZM2534.81 783.584C2534.81 782.658 2535.09 781.876 2535.64 781.238C2536.22 780.6 2537.06 780.281 2538.17 780.281C2539.28 780.281 2540.13 780.6 2540.7 781.238C2541.28 781.876 2541.57 782.658 2541.57 783.584C2541.57 784.51 2541.28 785.282 2540.7 785.899C2540.13 786.516 2539.28 786.825 2538.17 786.825C2537.06 786.825 2536.22 786.516 2535.64 785.899C2535.09 785.282 2534.81 784.51 2534.81 783.584ZM2552.96 825.845V796.858H2547.68V792.444H2552.96V789.017C2552.96 785.436 2553.92 782.668 2555.83 780.713C2557.74 778.758 2560.45 777.78 2563.95 777.78C2565.27 777.78 2566.57 777.955 2567.87 778.305L2567.56 782.935C2566.59 782.75 2565.56 782.658 2564.47 782.658C2562.62 782.658 2561.19 783.203 2560.18 784.294C2559.17 785.364 2558.67 786.907 2558.67 788.924V792.444H2565.8V796.858H2558.67V825.845H2552.96ZM2585.25 826.463C2580.72 826.463 2577.04 824.981 2574.2 822.018C2571.36 819.033 2569.94 815.051 2569.94 810.071V809.021C2569.94 805.708 2570.57 802.754 2571.82 800.161C2573.1 797.547 2574.87 795.51 2577.13 794.049C2579.42 792.567 2581.89 791.826 2584.54 791.826C2588.88 791.826 2592.26 793.256 2594.67 796.117C2597.07 798.978 2598.28 803.073 2598.28 808.404V810.781H2575.65C2575.73 814.073 2576.69 816.739 2578.52 818.776C2580.37 820.793 2582.72 821.801 2585.56 821.801C2587.58 821.801 2589.28 821.39 2590.68 820.567C2592.08 819.743 2593.31 818.653 2594.36 817.294L2597.85 820.011C2595.05 824.312 2590.85 826.463 2585.25 826.463ZM2584.54 796.518C2582.24 796.518 2580.3 797.362 2578.74 799.05C2577.17 800.717 2576.21 803.063 2575.83 806.088H2592.57V805.656C2592.4 802.754 2591.62 800.511 2590.22 798.926C2588.82 797.321 2586.93 796.518 2584.54 796.518Z" fill="black"/>
<path d="M2115.62 273.681H2099.38L2096.29 282.943H2086.44L2103.18 237.995H2111.76L2128.58 282.943H2118.73L2115.62 273.681ZM2101.88 266.18H2113.12L2107.47 249.355L2101.88 266.18ZM2160.78 266.55C2160.78 271.695 2159.61 275.822 2157.26 278.929C2154.94 282.017 2151.79 283.56 2147.81 283.56C2144.44 283.56 2141.71 282.387 2139.63 280.041V295.785H2130.71V249.541H2138.99L2139.29 252.813C2141.46 250.22 2144.27 248.923 2147.75 248.923C2151.87 248.923 2155.07 250.446 2157.35 253.492C2159.64 256.538 2160.78 260.736 2160.78 266.087V266.55ZM2151.86 265.902C2151.86 262.794 2151.3 260.397 2150.19 258.709C2149.1 257.022 2147.51 256.178 2145.41 256.178C2142.61 256.178 2140.68 257.248 2139.63 259.388V273.064C2140.72 275.266 2142.67 276.367 2145.47 276.367C2149.73 276.367 2151.86 272.879 2151.86 265.902ZM2196.4 266.55C2196.4 271.695 2195.23 275.822 2192.89 278.929C2190.56 282.017 2187.41 283.56 2183.44 283.56C2180.06 283.56 2177.34 282.387 2175.26 280.041V295.785H2166.34V249.541H2174.61L2174.92 252.813C2177.08 250.22 2179.9 248.923 2183.38 248.923C2187.49 248.923 2190.69 250.446 2192.98 253.492C2195.26 256.538 2196.4 260.736 2196.4 266.087V266.55ZM2187.48 265.902C2187.48 262.794 2186.93 260.397 2185.82 258.709C2184.73 257.022 2183.13 256.178 2181.03 256.178C2178.23 256.178 2176.31 257.248 2175.26 259.388V273.064C2176.35 275.266 2178.29 276.367 2181.09 276.367C2185.35 276.367 2187.48 272.879 2187.48 265.902ZM2236.57 237.995V267.6C2236.57 272.519 2235.02 276.408 2231.94 279.269C2228.87 282.13 2224.67 283.56 2219.34 283.56C2214.09 283.56 2209.93 282.171 2206.84 279.393C2203.75 276.614 2202.18 272.797 2202.12 267.94V237.995H2211.38V267.662C2211.38 270.605 2212.08 272.755 2213.48 274.114C2214.9 275.451 2216.85 276.12 2219.34 276.12C2224.55 276.12 2227.19 273.383 2227.28 267.909V237.995H2236.57ZM2251.79 249.541L2252.06 253.4C2254.45 250.415 2257.65 248.923 2261.67 248.923C2265.2 248.923 2267.84 249.963 2269.57 252.041C2271.3 254.12 2272.18 257.227 2272.22 261.364V282.943H2263.3V261.58C2263.3 259.687 2262.89 258.318 2262.07 257.474C2261.24 256.61 2259.87 256.178 2257.96 256.178C2255.45 256.178 2253.57 257.248 2252.31 259.388V282.943H2243.39V249.541H2251.79ZM2288.43 282.943H2279.48V249.541H2288.43V282.943ZM2278.95 240.897C2278.95 239.559 2279.4 238.458 2280.28 237.594C2281.19 236.729 2282.41 236.297 2283.95 236.297C2285.48 236.297 2286.69 236.729 2287.6 237.594C2288.5 238.458 2288.95 239.559 2288.95 240.897C2288.95 242.255 2288.49 243.367 2287.57 244.231C2286.66 245.095 2285.46 245.528 2283.95 245.528C2282.45 245.528 2281.24 245.095 2280.31 244.231C2279.41 243.367 2278.95 242.255 2278.95 240.897ZM2294.42 265.933C2294.42 262.62 2295.06 259.666 2296.33 257.073C2297.61 254.48 2299.44 252.473 2301.83 251.053C2304.24 249.633 2307.02 248.923 2310.19 248.923C2314.7 248.923 2318.37 250.302 2321.21 253.06C2324.08 255.818 2325.67 259.563 2326 264.297L2326.06 266.581C2326.06 271.706 2324.63 275.822 2321.77 278.929C2318.91 282.017 2315.07 283.56 2310.26 283.56C2305.44 283.56 2301.59 282.017 2298.71 278.929C2295.85 275.842 2294.42 271.644 2294.42 266.334V265.933ZM2303.34 266.581C2303.34 269.751 2303.94 272.179 2305.13 273.867C2306.32 275.534 2308.03 276.367 2310.26 276.367C2312.42 276.367 2314.1 275.544 2315.32 273.898C2316.53 272.231 2317.14 269.576 2317.14 265.933C2317.14 262.825 2316.53 260.417 2315.32 258.709C2314.1 257.001 2312.4 256.147 2310.19 256.147C2308.01 256.147 2306.32 257.001 2305.13 258.709C2303.94 260.397 2303.34 263.021 2303.34 266.581ZM2339.77 249.541L2340.05 253.4C2342.43 250.415 2345.63 248.923 2349.65 248.923C2353.19 248.923 2355.82 249.963 2357.55 252.041C2359.28 254.12 2360.16 257.227 2360.2 261.364V282.943H2351.28V261.58C2351.28 259.687 2350.87 258.318 2350.05 257.474C2349.22 256.61 2347.86 256.178 2345.94 256.178C2343.43 256.178 2341.55 257.248 2340.29 259.388V282.943H2331.37V249.541H2339.77ZM2091.44 356.943V311.995H2106.14C2111.02 311.995 2114.68 313.004 2117.13 315.02C2119.6 317.037 2120.83 320.021 2120.83 323.973C2120.83 326.072 2120.24 327.935 2119.04 329.56C2117.85 331.166 2116.22 332.411 2114.17 333.296C2116.59 333.975 2118.51 335.272 2119.91 337.185C2121.33 339.079 2122.04 341.343 2122.04 343.977C2122.04 348.011 2120.73 351.18 2118.12 353.485C2115.5 355.79 2111.81 356.943 2107.03 356.943H2091.44ZM2097.37 335.92V352.096H2107.16C2109.92 352.096 2112.09 351.386 2113.67 349.966C2115.28 348.525 2116.08 346.55 2116.08 344.039C2116.08 338.626 2113.14 335.92 2107.25 335.92H2097.37ZM2097.37 331.166H2106.32C2108.92 331.166 2110.99 330.517 2112.53 329.221C2114.09 327.924 2114.88 326.165 2114.88 323.942C2114.88 321.472 2114.16 319.682 2112.71 318.571C2111.27 317.439 2109.08 316.873 2106.14 316.873H2097.37V331.166ZM2143.8 357.56C2139.27 357.56 2135.59 356.078 2132.75 353.115C2129.91 350.131 2128.49 346.148 2128.49 341.168V340.118C2128.49 336.805 2129.12 333.851 2130.37 331.258C2131.65 328.645 2133.42 326.607 2135.68 325.146C2137.97 323.664 2140.44 322.923 2143.09 322.923C2147.43 322.923 2150.81 324.354 2153.22 327.214C2155.62 330.075 2156.83 334.17 2156.83 339.501V341.878H2134.2C2134.28 345.171 2135.24 347.836 2137.07 349.873C2138.92 351.89 2141.27 352.899 2144.11 352.899C2146.13 352.899 2147.84 352.487 2149.23 351.664C2150.63 350.841 2151.86 349.75 2152.91 348.391L2156.4 351.108C2153.6 355.409 2149.4 357.56 2143.8 357.56ZM2143.09 327.616C2140.79 327.616 2138.85 328.459 2137.29 330.147C2135.72 331.814 2134.76 334.16 2134.39 337.185H2151.12V336.753C2150.95 333.851 2150.17 331.608 2148.77 330.024C2147.37 328.418 2145.48 327.616 2143.09 327.616ZM2182.91 348.083C2182.91 346.539 2182.33 345.346 2181.15 344.502C2180 343.637 2177.98 342.897 2175.07 342.279C2172.19 341.662 2169.9 340.921 2168.19 340.056C2166.5 339.192 2165.25 338.163 2164.42 336.969C2163.62 335.776 2163.22 334.356 2163.22 332.709C2163.22 329.972 2164.37 327.657 2166.68 325.763C2169 323.87 2171.97 322.923 2175.57 322.923C2179.35 322.923 2182.42 323.901 2184.77 325.856C2187.13 327.811 2188.32 330.312 2188.32 333.358H2182.57C2182.57 331.793 2181.91 330.445 2180.57 329.313C2179.25 328.182 2177.58 327.616 2175.57 327.616C2173.49 327.616 2171.86 328.068 2170.69 328.974C2169.52 329.879 2168.93 331.063 2168.93 332.524C2168.93 333.903 2169.48 334.942 2170.57 335.642C2171.66 336.342 2173.62 337.011 2176.46 337.649C2179.32 338.287 2181.64 339.048 2183.41 339.933C2185.18 340.818 2186.49 341.888 2187.33 343.143C2188.19 344.378 2188.63 345.891 2188.63 347.681C2188.63 350.666 2187.43 353.063 2185.04 354.874C2182.66 356.665 2179.56 357.56 2175.75 357.56C2173.08 357.56 2170.71 357.087 2168.65 356.14C2166.59 355.193 2164.98 353.876 2163.81 352.189C2162.65 350.48 2162.08 348.638 2162.08 346.663H2167.79C2167.89 348.577 2168.65 350.1 2170.07 351.232C2171.51 352.343 2173.41 352.899 2175.75 352.899C2177.91 352.899 2179.64 352.466 2180.94 351.602C2182.26 350.717 2182.91 349.544 2182.91 348.083ZM2203.81 315.453V323.541H2210.05V327.955H2203.81V348.669C2203.81 350.007 2204.09 351.015 2204.65 351.695C2205.2 352.353 2206.15 352.682 2207.49 352.682C2208.15 352.682 2209.05 352.559 2210.2 352.312V356.943C2208.7 357.354 2207.24 357.56 2205.82 357.56C2203.27 357.56 2201.34 356.788 2200.05 355.245C2198.75 353.701 2198.1 351.509 2198.1 348.669V327.955H2192.02V323.541H2198.1V315.453H2203.81ZM2258.15 345.212H2239.31L2235.09 356.943H2228.97L2246.14 311.995H2251.32L2268.52 356.943H2262.44L2258.15 345.212ZM2241.11 340.334H2256.39L2248.73 319.311L2241.11 340.334ZM2301.89 340.612C2301.89 345.695 2300.73 349.791 2298.4 352.899C2296.08 356.006 2292.93 357.56 2288.95 357.56C2284.9 357.56 2281.71 356.274 2279.38 353.701V369.785H2273.67V323.541H2278.89L2279.17 327.245C2281.49 324.364 2284.73 322.923 2288.86 322.923C2292.88 322.923 2296.04 324.436 2298.37 327.461C2300.72 330.487 2301.89 334.695 2301.89 340.087V340.612ZM2296.18 339.964C2296.18 336.198 2295.38 333.224 2293.77 331.042C2292.17 328.861 2289.96 327.77 2287.16 327.77C2283.71 327.77 2281.11 329.303 2279.38 332.37V348.33C2281.09 351.376 2283.71 352.899 2287.23 352.899C2289.96 352.899 2292.13 351.818 2293.74 349.657C2295.37 347.476 2296.18 344.245 2296.18 339.964ZM2337.39 340.612C2337.39 345.695 2336.23 349.791 2333.9 352.899C2331.58 356.006 2328.43 357.56 2324.46 357.56C2320.4 357.56 2317.21 356.274 2314.89 353.701V369.785H2309.17V323.541H2314.39L2314.67 327.245C2317 324.364 2320.23 322.923 2324.36 322.923C2328.38 322.923 2331.55 324.436 2333.87 327.461C2336.22 330.487 2337.39 334.695 2337.39 340.087V340.612ZM2331.68 339.964C2331.68 336.198 2330.88 333.224 2329.27 331.042C2327.67 328.861 2325.46 327.77 2322.67 327.77C2319.21 327.77 2316.61 329.303 2314.89 332.37V348.33C2316.59 351.376 2319.21 352.899 2322.73 352.899C2325.46 352.899 2327.64 351.818 2329.24 349.657C2330.87 347.476 2331.68 344.245 2331.68 339.964ZM2364.12 348.083C2364.12 346.539 2363.54 345.346 2362.36 344.502C2361.21 343.637 2359.19 342.897 2356.28 342.279C2353.4 341.662 2351.11 340.921 2349.4 340.056C2347.71 339.192 2346.46 338.163 2345.63 336.969C2344.83 335.776 2344.43 334.356 2344.43 332.709C2344.43 329.972 2345.58 327.657 2347.89 325.763C2350.21 323.87 2353.18 322.923 2356.78 322.923C2360.56 322.923 2363.63 323.901 2365.98 325.856C2368.34 327.811 2369.53 330.312 2369.53 333.358H2363.78C2363.78 331.793 2363.12 330.445 2361.78 329.313C2360.46 328.182 2358.79 327.616 2356.78 327.616C2354.7 327.616 2353.07 328.068 2351.9 328.974C2350.73 329.879 2350.14 331.063 2350.14 332.524C2350.14 333.903 2350.69 334.942 2351.78 335.642C2352.87 336.342 2354.83 337.011 2357.67 337.649C2360.53 338.287 2362.85 339.048 2364.62 339.933C2366.39 340.818 2367.7 341.888 2368.54 343.143C2369.4 344.378 2369.84 345.891 2369.84 347.681C2369.84 350.666 2368.64 353.063 2366.25 354.874C2363.87 356.665 2360.77 357.56 2356.96 357.56C2354.29 357.56 2351.92 357.087 2349.86 356.14C2347.8 355.193 2346.19 353.876 2345.02 352.189C2343.86 350.48 2343.29 348.638 2343.29 346.663H2349C2349.1 348.577 2349.86 350.1 2351.28 351.232C2352.72 352.343 2354.62 352.899 2356.96 352.899C2359.12 352.899 2360.85 352.466 2362.15 351.602C2363.47 350.717 2364.12 349.544 2364.12 348.083ZM2403.55 342.773L2404.41 348.7L2405.68 343.36L2414.57 311.995H2419.57L2428.24 343.36L2429.48 348.793L2430.43 342.742L2437.41 311.995H2443.37L2432.47 356.943H2427.07L2417.81 324.189L2417.1 320.762L2416.39 324.189L2406.79 356.943H2401.39L2390.52 311.995H2396.45L2403.55 342.773ZM2446.58 339.933C2446.58 336.661 2447.22 333.718 2448.49 331.104C2449.79 328.49 2451.58 326.473 2453.87 325.053C2456.17 323.633 2458.79 322.923 2461.74 322.923C2466.29 322.923 2469.96 324.498 2472.76 327.646C2475.58 330.795 2476.99 334.983 2476.99 340.211V340.612C2476.99 343.864 2476.36 346.786 2475.1 349.379C2473.87 351.952 2472.09 353.958 2469.76 355.399C2467.46 356.84 2464.8 357.56 2461.8 357.56C2457.27 357.56 2453.6 355.986 2450.78 352.837C2447.98 349.688 2446.58 345.521 2446.58 340.334V339.933ZM2452.32 340.612C2452.32 344.317 2453.18 347.29 2454.88 349.534C2456.61 351.777 2458.92 352.899 2461.8 352.899C2464.7 352.899 2467.01 351.767 2468.71 349.503C2470.42 347.218 2471.28 344.028 2471.28 339.933C2471.28 336.27 2470.4 333.306 2468.65 331.042C2466.92 328.758 2464.62 327.616 2461.74 327.616C2458.92 327.616 2456.64 328.737 2454.91 330.981C2453.19 333.224 2452.32 336.434 2452.32 340.612ZM2500.29 328.665C2499.43 328.521 2498.49 328.449 2497.49 328.449C2493.74 328.449 2491.2 330.044 2489.86 333.234V356.943H2484.15V323.541H2489.71L2489.8 327.4C2491.67 324.415 2494.33 322.923 2497.76 322.923C2498.87 322.923 2499.72 323.067 2500.29 323.355V328.665ZM2514.9 341.476L2511.32 345.212V356.943H2505.6V309.525H2511.32V338.204L2514.37 334.531L2524.77 323.541H2531.72L2518.72 337.494L2533.23 356.943H2526.53L2514.9 341.476ZM2584.02 316.873H2569.57V356.943H2563.67V316.873H2549.26V311.995H2584.02V316.873ZM2585.19 339.933C2585.19 336.661 2585.83 333.718 2587.1 331.104C2588.4 328.49 2590.19 326.473 2592.47 325.053C2594.78 323.633 2597.4 322.923 2600.35 322.923C2604.89 322.923 2608.57 324.498 2611.37 327.646C2614.19 330.795 2615.6 334.983 2615.6 340.211V340.612C2615.6 343.864 2614.97 346.786 2613.71 349.379C2612.48 351.952 2610.7 353.958 2608.37 355.399C2606.07 356.84 2603.41 357.56 2600.41 357.56C2595.88 357.56 2592.21 355.986 2589.39 352.837C2586.59 349.688 2585.19 345.521 2585.19 340.334V339.933ZM2590.93 340.612C2590.93 344.317 2591.78 347.29 2593.49 349.534C2595.22 351.777 2597.53 352.899 2600.41 352.899C2603.31 352.899 2605.61 351.767 2607.32 349.503C2609.03 347.218 2609.88 344.028 2609.88 339.933C2609.88 336.27 2609.01 333.306 2607.26 331.042C2605.53 328.758 2603.23 327.616 2600.35 327.616C2597.53 327.616 2595.25 328.737 2593.52 330.981C2591.79 333.224 2590.93 336.434 2590.93 340.612ZM2621.4 339.964C2621.4 334.757 2622.6 330.62 2625.01 327.554C2627.42 324.467 2630.61 322.923 2634.58 322.923C2638.66 322.923 2641.84 324.364 2644.12 327.245L2644.4 323.541H2649.62V356.14C2649.62 360.462 2648.33 363.868 2645.76 366.358C2643.2 368.848 2639.77 370.093 2635.45 370.093C2633.04 370.093 2630.68 369.579 2628.38 368.55C2626.07 367.521 2624.31 366.111 2623.1 364.321L2626.06 360.894C2628.51 363.919 2631.5 365.432 2635.04 365.432C2637.82 365.432 2639.98 364.65 2641.53 363.086C2643.09 361.522 2643.87 359.32 2643.87 356.48V353.609C2641.59 356.243 2638.47 357.56 2634.52 357.56C2630.61 357.56 2627.44 355.986 2625.01 352.837C2622.6 349.688 2621.4 345.397 2621.4 339.964ZM2627.14 340.612C2627.14 344.378 2627.91 347.342 2629.46 349.503C2631 351.643 2633.16 352.713 2635.94 352.713C2639.54 352.713 2642.19 351.077 2643.87 347.805V332.555C2642.12 329.365 2639.5 327.77 2636 327.77C2633.22 327.77 2631.05 328.85 2629.49 331.011C2627.92 333.172 2627.14 336.373 2627.14 340.612ZM2672.12 357.56C2667.59 357.56 2663.91 356.078 2661.07 353.115C2658.23 350.131 2656.81 346.148 2656.81 341.168V340.118C2656.81 336.805 2657.44 333.851 2658.69 331.258C2659.97 328.645 2661.74 326.607 2664 325.146C2666.29 323.664 2668.75 322.923 2671.41 322.923C2675.75 322.923 2679.13 324.354 2681.54 327.214C2683.94 330.075 2685.15 334.17 2685.15 339.501V341.878H2662.52C2662.6 345.171 2663.56 347.836 2665.39 349.873C2667.24 351.89 2669.59 352.899 2672.43 352.899C2674.45 352.899 2676.15 352.487 2677.55 351.664C2678.95 350.841 2680.18 349.75 2681.23 348.391L2684.72 351.108C2681.92 355.409 2677.72 357.56 2672.12 357.56ZM2671.41 327.616C2669.1 327.616 2667.17 328.459 2665.61 330.147C2664.04 331.814 2663.07 334.16 2662.7 337.185H2679.44V336.753C2679.27 333.851 2678.49 331.608 2677.09 330.024C2675.69 328.418 2673.8 327.616 2671.41 327.616ZM2699.53 315.453V323.541H2705.77V327.955H2699.53V348.669C2699.53 350.007 2699.81 351.015 2700.37 351.695C2700.92 352.353 2701.87 352.682 2703.21 352.682C2703.87 352.682 2704.77 352.559 2705.92 352.312V356.943C2704.42 357.354 2702.96 357.56 2701.54 357.56C2698.99 357.56 2697.06 356.788 2695.77 355.245C2694.47 353.701 2693.82 351.509 2693.82 348.669V327.955H2687.74V323.541H2693.82V315.453H2699.53ZM2718.18 327.585C2720.71 324.477 2724 322.923 2728.06 322.923C2735.12 322.923 2738.68 326.906 2738.74 334.87V356.943H2733.03V334.839C2733.01 332.431 2732.45 330.651 2731.36 329.499C2730.29 328.346 2728.61 327.77 2726.33 327.77C2724.48 327.77 2722.85 328.264 2721.45 329.252C2720.05 330.24 2718.96 331.536 2718.18 333.141V356.943H2712.47V309.525H2718.18V327.585ZM2761.15 357.56C2756.62 357.56 2752.94 356.078 2750.1 353.115C2747.26 350.131 2745.84 346.148 2745.84 341.168V340.118C2745.84 336.805 2746.47 333.851 2747.72 331.258C2749 328.645 2750.77 326.607 2753.03 325.146C2755.32 323.664 2757.79 322.923 2760.44 322.923C2764.78 322.923 2768.16 324.354 2770.57 327.214C2772.97 330.075 2774.18 334.17 2774.18 339.501V341.878H2751.55C2751.63 345.171 2752.59 347.836 2754.42 349.873C2756.27 351.89 2758.62 352.899 2761.46 352.899C2763.48 352.899 2765.18 352.487 2766.58 351.664C2767.98 350.841 2769.21 349.75 2770.26 348.391L2773.75 351.108C2770.95 355.409 2766.75 357.56 2761.15 357.56ZM2760.44 327.616C2758.14 327.616 2756.2 328.459 2754.64 330.147C2753.07 331.814 2752.11 334.16 2751.73 337.185H2768.47V336.753C2768.3 333.851 2767.52 331.608 2766.12 330.024C2764.72 328.418 2762.83 327.616 2760.44 327.616ZM2796.96 328.665C2796.1 328.521 2795.16 328.449 2794.15 328.449C2790.41 328.449 2787.86 330.044 2786.53 333.234V356.943H2780.81V323.541H2786.37L2786.46 327.4C2788.34 324.415 2790.99 322.923 2794.43 322.923C2795.54 322.923 2796.38 323.067 2796.96 323.355V328.665Z" fill="black"/>
<path d="M2089.31 455.259C2089.31 451.771 2089.77 448.421 2090.7 445.211C2091.64 442 2093.03 439.083 2094.89 436.459C2096.74 433.835 2098.66 431.983 2100.65 430.902L2101.53 433.727C2099.28 435.456 2097.43 438.095 2095.98 441.645C2094.54 445.195 2093.75 449.17 2093.61 453.569L2093.59 455.537C2093.59 461.495 2094.68 466.666 2096.85 471.05C2098.17 473.674 2099.73 475.726 2101.53 477.208L2100.65 479.824C2098.6 478.682 2096.64 476.768 2094.77 474.083C2091.13 468.835 2089.31 462.56 2089.31 455.259ZM2126.84 456.695C2126.84 460.507 2125.97 463.579 2124.22 465.91C2122.48 468.24 2120.12 469.406 2117.14 469.406C2114.1 469.406 2111.7 468.441 2109.96 466.512V478.574H2105.68V443.891H2109.59L2109.8 446.67C2111.54 444.509 2113.96 443.428 2117.07 443.428C2120.08 443.428 2122.45 444.563 2124.2 446.832C2125.96 449.101 2126.84 452.257 2126.84 456.301V456.695ZM2122.55 456.209C2122.55 453.384 2121.95 451.153 2120.75 449.517C2119.54 447.881 2117.89 447.063 2115.79 447.063C2113.2 447.063 2111.26 448.213 2109.96 450.513V462.483C2111.24 464.767 2113.2 465.91 2115.84 465.91C2117.89 465.91 2119.52 465.099 2120.73 463.479C2121.95 461.842 2122.55 459.419 2122.55 456.209ZM2147.77 466.465C2146.1 468.426 2143.65 469.406 2140.43 469.406C2137.76 469.406 2135.72 468.634 2134.32 467.09C2132.93 465.531 2132.22 463.232 2132.21 460.191V443.891H2136.49V460.075C2136.49 463.872 2138.04 465.771 2141.12 465.771C2144.4 465.771 2146.57 464.551 2147.65 462.113V443.891H2151.94V468.943H2147.86L2147.77 466.465ZM2162.52 443.891L2162.66 447.04C2164.57 444.632 2167.07 443.428 2170.16 443.428C2175.45 443.428 2178.12 446.415 2178.17 452.388V468.943H2173.88V452.365C2173.87 450.559 2173.45 449.224 2172.63 448.36C2171.83 447.495 2170.57 447.063 2168.86 447.063C2167.47 447.063 2166.25 447.434 2165.2 448.174C2164.15 448.915 2163.33 449.888 2162.75 451.092V468.943H2158.46V443.891H2162.52ZM2195.25 456.185C2195.25 453.731 2195.73 451.524 2196.69 449.564C2197.66 447.603 2199.01 446.091 2200.72 445.026C2202.45 443.961 2204.42 443.428 2206.62 443.428C2210.03 443.428 2212.79 444.609 2214.89 446.971C2217 449.332 2218.06 452.473 2218.06 456.394V456.695C2218.06 459.134 2217.59 461.325 2216.65 463.27C2215.72 465.2 2214.39 466.705 2212.64 467.785C2210.91 468.865 2208.92 469.406 2206.67 469.406C2203.27 469.406 2200.52 468.225 2198.4 465.863C2196.3 463.502 2195.25 460.376 2195.25 456.486V456.185ZM2199.56 456.695C2199.56 459.473 2200.2 461.703 2201.48 463.386C2202.78 465.068 2204.51 465.91 2206.67 465.91C2208.85 465.91 2210.57 465.061 2211.86 463.363C2213.14 461.649 2213.78 459.257 2213.78 456.185C2213.78 453.438 2213.12 451.215 2211.81 449.517C2210.51 447.804 2208.78 446.947 2206.62 446.947C2204.51 446.947 2202.8 447.789 2201.51 449.471C2200.21 451.153 2199.56 453.561 2199.56 456.695ZM2227.48 443.891L2227.62 447.04C2229.54 444.632 2232.04 443.428 2235.12 443.428C2240.42 443.428 2243.09 446.415 2243.14 452.388V468.943H2238.85V452.365C2238.84 450.559 2238.42 449.224 2237.6 448.36C2236.8 447.495 2235.54 447.063 2233.83 447.063C2232.44 447.063 2231.22 447.434 2230.17 448.174C2229.12 448.915 2228.3 449.888 2227.72 451.092V468.943H2223.43V443.891H2227.48ZM2283.54 463.039L2288.35 443.891H2292.64L2285.34 468.943H2281.87L2275.78 449.957L2269.85 468.943H2266.38L2259.11 443.891H2263.37L2268.3 462.645L2274.14 443.891H2277.59L2283.54 463.039ZM2295.88 456.185C2295.88 453.731 2296.36 451.524 2297.31 449.564C2298.29 447.603 2299.63 446.091 2301.34 445.026C2303.07 443.961 2305.04 443.428 2307.25 443.428C2310.66 443.428 2313.41 444.609 2315.51 446.971C2317.63 449.332 2318.68 452.473 2318.68 456.394V456.695C2318.68 459.134 2318.21 461.325 2317.27 463.27C2316.34 465.2 2315.01 466.705 2313.27 467.785C2311.54 468.865 2309.55 469.406 2307.29 469.406C2303.9 469.406 2301.14 468.225 2299.03 465.863C2296.93 463.502 2295.88 460.376 2295.88 456.486V456.185ZM2300.18 456.695C2300.18 459.473 2300.82 461.703 2302.11 463.386C2303.4 465.068 2305.13 465.91 2307.29 465.91C2309.47 465.91 2311.2 465.061 2312.48 463.363C2313.76 461.649 2314.4 459.257 2314.4 456.185C2314.4 453.438 2313.74 451.215 2312.43 449.517C2311.14 447.804 2309.41 446.947 2307.25 446.947C2305.13 446.947 2303.43 447.789 2302.13 449.471C2300.83 451.153 2300.18 453.561 2300.18 456.695ZM2336.16 447.735C2335.52 447.627 2334.81 447.572 2334.06 447.572C2331.25 447.572 2329.34 448.769 2328.34 451.161V468.943H2324.05V443.891H2328.22L2328.29 446.785C2329.7 444.547 2331.69 443.428 2334.26 443.428C2335.1 443.428 2335.73 443.536 2336.16 443.752V447.735ZM2347.11 457.343L2344.43 460.145V468.943H2340.15V433.38H2344.43V454.889L2346.72 452.134L2354.52 443.891H2359.73L2349.99 454.356L2360.87 468.943H2355.84L2347.11 457.343ZM2397.13 456.695C2397.13 460.523 2396.25 463.602 2394.49 465.933C2392.73 468.248 2390.36 469.406 2387.4 469.406C2384.24 469.406 2381.79 468.287 2380.06 466.049L2379.85 468.943H2375.92V433.38H2380.2V446.646C2381.93 444.501 2384.31 443.428 2387.35 443.428C2390.4 443.428 2392.78 444.578 2394.51 446.878C2396.25 449.178 2397.13 452.327 2397.13 456.324V456.695ZM2392.84 456.209C2392.84 453.291 2392.28 451.038 2391.15 449.448C2390.02 447.858 2388.4 447.063 2386.29 447.063C2383.46 447.063 2381.44 448.375 2380.2 450.999V461.835C2381.51 464.459 2383.56 465.771 2386.34 465.771C2388.39 465.771 2389.99 464.976 2391.13 463.386C2392.27 461.796 2392.84 459.404 2392.84 456.209ZM2412.94 469.406C2409.54 469.406 2406.78 468.294 2404.65 466.072C2402.52 463.834 2401.45 460.847 2401.45 457.111V456.324C2401.45 453.839 2401.93 451.624 2402.87 449.679C2403.82 447.719 2405.15 446.191 2406.85 445.095C2408.56 443.984 2410.41 443.428 2412.41 443.428C2415.66 443.428 2418.19 444.501 2420 446.646C2421.81 448.792 2422.71 451.863 2422.71 455.861V457.644H2405.74C2405.8 460.114 2406.52 462.113 2407.89 463.641C2409.28 465.153 2411.04 465.91 2413.17 465.91C2414.68 465.91 2415.96 465.601 2417.01 464.983C2418.06 464.366 2418.98 463.548 2419.77 462.529L2422.38 464.567C2420.29 467.793 2417.14 469.406 2412.94 469.406ZM2412.41 446.947C2410.68 446.947 2409.23 447.58 2408.05 448.846C2406.88 450.096 2406.15 451.856 2405.88 454.125H2418.43V453.801C2418.3 451.624 2417.72 449.942 2416.67 448.753C2415.62 447.549 2414.2 446.947 2412.41 446.947ZM2432.34 468.943H2428.06V443.891H2432.34V468.943ZM2427.71 437.246C2427.71 436.552 2427.92 435.965 2428.34 435.487C2428.77 435.008 2429.4 434.769 2430.23 434.769C2431.07 434.769 2431.7 435.008 2432.13 435.487C2432.56 435.965 2432.78 436.552 2432.78 437.246C2432.78 437.941 2432.56 438.52 2432.13 438.983C2431.7 439.446 2431.07 439.677 2430.23 439.677C2429.4 439.677 2428.77 439.446 2428.34 438.983C2427.92 438.52 2427.71 437.941 2427.71 437.246ZM2443.27 443.891L2443.41 447.04C2445.32 444.632 2447.82 443.428 2450.91 443.428C2456.2 443.428 2458.87 446.415 2458.92 452.388V468.943H2454.64V452.365C2454.62 450.559 2454.2 449.224 2453.39 448.36C2452.58 447.495 2451.33 447.063 2449.61 447.063C2448.22 447.063 2447 447.434 2445.95 448.174C2444.9 448.915 2444.09 449.888 2443.5 451.092V468.943H2439.22V443.891H2443.27ZM2464.36 456.209C2464.36 452.303 2465.26 449.201 2467.07 446.901C2468.88 444.586 2471.27 443.428 2474.25 443.428C2477.3 443.428 2479.69 444.509 2481.4 446.67L2481.61 443.891H2485.52V468.341C2485.52 471.582 2484.56 474.137 2482.63 476.004C2480.71 477.872 2478.14 478.806 2474.9 478.806C2473.09 478.806 2471.32 478.42 2469.59 477.648C2467.86 476.876 2466.55 475.819 2465.63 474.476L2467.86 471.906C2469.69 474.175 2471.94 475.31 2474.59 475.31C2476.68 475.31 2478.3 474.723 2479.46 473.55C2480.63 472.377 2481.22 470.725 2481.22 468.595V466.442C2479.5 468.418 2477.16 469.406 2474.2 469.406C2471.27 469.406 2468.89 468.225 2467.07 465.863C2465.26 463.502 2464.36 460.283 2464.36 456.209ZM2468.67 456.695C2468.67 459.519 2469.25 461.742 2470.4 463.363C2471.56 464.968 2473.18 465.771 2475.27 465.771C2477.97 465.771 2479.95 464.544 2481.22 462.089V450.652C2479.9 448.259 2477.94 447.063 2475.31 447.063C2473.23 447.063 2471.6 447.873 2470.43 449.494C2469.25 451.115 2468.67 453.515 2468.67 456.695ZM2512.03 463.131L2518.24 443.891H2522.61L2513.63 468.943H2510.37L2501.29 443.891H2505.67L2512.03 463.131ZM2536.81 469.406C2533.41 469.406 2530.65 468.294 2528.52 466.072C2526.39 463.834 2525.32 460.847 2525.32 457.111V456.324C2525.32 453.839 2525.79 451.624 2526.73 449.679C2527.69 447.719 2529.02 446.191 2530.72 445.095C2532.43 443.984 2534.28 443.428 2536.27 443.428C2539.53 443.428 2542.06 444.501 2543.87 446.646C2545.67 448.792 2546.58 451.863 2546.58 455.861V457.644H2529.61C2529.67 460.114 2530.39 462.113 2531.76 463.641C2533.15 465.153 2534.91 465.91 2537.04 465.91C2538.55 465.91 2539.83 465.601 2540.88 464.983C2541.93 464.366 2542.85 463.548 2543.64 462.529L2546.25 464.567C2544.15 467.793 2541 469.406 2536.81 469.406ZM2536.27 446.947C2534.55 446.947 2533.09 447.58 2531.92 448.846C2530.75 450.096 2530.02 451.856 2529.74 454.125H2542.29V453.801C2542.17 451.624 2541.58 449.942 2540.53 448.753C2539.48 447.549 2538.06 446.947 2536.27 446.947ZM2563.66 447.735C2563.02 447.627 2562.31 447.572 2561.56 447.572C2558.75 447.572 2556.84 448.769 2555.84 451.161V468.943H2551.55V443.891H2555.72L2555.79 446.785C2557.2 444.547 2559.19 443.428 2561.77 443.428C2562.6 443.428 2563.23 443.536 2563.66 443.752V447.735ZM2588.83 456.695C2588.83 460.523 2587.95 463.602 2586.19 465.933C2584.43 468.248 2582.07 469.406 2579.11 469.406C2575.94 469.406 2573.5 468.287 2571.77 466.049L2571.56 468.943H2567.62V433.38H2571.91V446.646C2573.64 444.501 2576.02 443.428 2579.06 443.428C2582.1 443.428 2584.49 444.578 2586.21 446.878C2587.96 449.178 2588.83 452.327 2588.83 456.324V456.695ZM2584.55 456.209C2584.55 453.291 2583.98 451.038 2582.86 449.448C2581.73 447.858 2580.11 447.063 2578 447.063C2575.17 447.063 2573.14 448.375 2571.91 450.999V461.835C2573.22 464.459 2575.26 465.771 2578.04 465.771C2580.09 465.771 2581.69 464.976 2582.83 463.386C2583.98 461.796 2584.55 459.404 2584.55 456.209ZM2621.48 468.943C2621.23 468.449 2621.03 467.569 2620.87 466.303C2618.88 468.372 2616.51 469.406 2613.74 469.406C2611.27 469.406 2609.24 468.711 2607.65 467.322C2606.08 465.917 2605.29 464.142 2605.29 461.997C2605.29 459.388 2606.28 457.366 2608.26 455.931C2610.25 454.48 2613.04 453.754 2616.64 453.754H2620.81V451.786C2620.81 450.289 2620.36 449.101 2619.46 448.221C2618.57 447.326 2617.25 446.878 2615.5 446.878C2613.98 446.878 2612.69 447.264 2611.66 448.036C2610.63 448.807 2610.11 449.741 2610.11 450.837H2605.8C2605.8 449.587 2606.24 448.383 2607.12 447.225C2608.02 446.052 2609.22 445.126 2610.73 444.447C2612.26 443.768 2613.94 443.428 2615.76 443.428C2618.64 443.428 2620.91 444.154 2622.54 445.604C2624.18 447.04 2625.03 449.023 2625.09 451.555V463.085C2625.09 465.385 2625.38 467.214 2625.97 468.572V468.943H2621.48ZM2614.37 465.678C2615.71 465.678 2616.98 465.331 2618.19 464.636C2619.39 463.942 2620.26 463.039 2620.81 461.927V456.787H2617.45C2612.2 456.787 2609.58 458.323 2609.58 461.395C2609.58 462.738 2610.02 463.787 2610.92 464.544C2611.81 465.3 2612.96 465.678 2614.37 465.678ZM2635.85 443.891L2635.99 447.04C2637.91 444.632 2640.41 443.428 2643.5 443.428C2648.79 443.428 2651.46 446.415 2651.51 452.388V468.943H2647.22V452.365C2647.21 450.559 2646.79 449.224 2645.97 448.36C2645.17 447.495 2643.91 447.063 2642.2 447.063C2640.81 447.063 2639.59 447.434 2638.54 448.174C2637.49 448.915 2636.67 449.888 2636.09 451.092V468.943H2631.8V443.891H2635.85ZM2656.92 456.209C2656.92 452.365 2657.83 449.278 2659.66 446.947C2661.48 444.601 2663.86 443.428 2666.81 443.428C2669.74 443.428 2672.07 444.431 2673.78 446.438V433.38H2678.06V468.943H2674.13L2673.92 466.257C2672.2 468.356 2669.82 469.406 2666.76 469.406C2663.86 469.406 2661.49 468.217 2659.66 465.84C2657.83 463.463 2656.92 460.361 2656.92 456.533V456.209ZM2661.21 456.695C2661.21 459.535 2661.79 461.758 2662.97 463.363C2664.14 464.968 2665.76 465.771 2667.83 465.771C2670.55 465.771 2672.53 464.551 2673.78 462.113V450.606C2672.5 448.244 2670.53 447.063 2667.88 447.063C2665.78 447.063 2664.14 447.873 2662.97 449.494C2661.79 451.115 2661.21 453.515 2661.21 456.695ZM2700.54 443.891L2700.68 447.04C2702.6 444.632 2705.1 443.428 2708.18 443.428C2713.48 443.428 2716.15 446.415 2716.2 452.388V468.943H2711.91V452.365C2711.9 450.559 2711.48 449.224 2710.66 448.36C2709.86 447.495 2708.6 447.063 2706.89 447.063C2705.5 447.063 2704.28 447.434 2703.23 448.174C2702.18 448.915 2701.36 449.888 2700.78 451.092V468.943H2696.49V443.891H2700.54ZM2721.52 456.185C2721.52 453.731 2722 451.524 2722.96 449.564C2723.93 447.603 2725.27 446.091 2726.98 445.026C2728.71 443.961 2730.68 443.428 2732.89 443.428C2736.3 443.428 2739.05 444.609 2741.15 446.971C2743.27 449.332 2744.33 452.473 2744.33 456.394V456.695C2744.33 459.134 2743.86 461.325 2742.91 463.27C2741.99 465.2 2740.65 466.705 2738.91 467.785C2737.18 468.865 2735.19 469.406 2732.93 469.406C2729.54 469.406 2726.78 468.225 2724.67 465.863C2722.57 463.502 2721.52 460.376 2721.52 456.486V456.185ZM2725.83 456.695C2725.83 459.473 2726.47 461.703 2727.75 463.386C2729.05 465.068 2730.77 465.91 2732.93 465.91C2735.11 465.91 2736.84 465.061 2738.12 463.363C2739.4 461.649 2740.04 459.257 2740.04 456.185C2740.04 453.438 2739.39 451.215 2738.07 449.517C2736.78 447.804 2735.05 446.947 2732.89 446.947C2730.77 446.947 2729.07 447.789 2727.77 449.471C2726.48 451.153 2725.83 453.561 2725.83 456.695ZM2765.16 466.465C2763.5 468.426 2761.05 469.406 2757.82 469.406C2755.15 469.406 2753.12 468.634 2751.71 467.09C2750.32 465.531 2749.62 463.232 2749.6 460.191V443.891H2753.89V460.075C2753.89 463.872 2755.43 465.771 2758.52 465.771C2761.79 465.771 2763.97 464.551 2765.05 462.113V443.891H2769.33V468.943H2765.26L2765.16 466.465ZM2779.91 443.891L2780.05 447.04C2781.96 444.632 2784.47 443.428 2787.55 443.428C2792.85 443.428 2795.52 446.415 2795.56 452.388V468.943H2791.28V452.365C2791.26 450.559 2790.85 449.224 2790.03 448.36C2789.23 447.495 2787.97 447.063 2786.26 447.063C2784.87 447.063 2783.65 447.434 2782.6 448.174C2781.55 448.915 2780.73 449.888 2780.14 451.092V468.943H2775.86V443.891H2779.91ZM2811.91 455.491C2811.91 458.933 2811.45 462.236 2810.54 465.4C2809.65 468.549 2808.27 471.459 2806.4 474.129C2804.55 476.799 2802.6 478.698 2800.56 479.824L2799.66 477.208C2802.04 475.387 2803.94 472.562 2805.38 468.734C2806.83 464.891 2807.57 460.631 2807.6 455.954V455.213C2807.6 451.972 2807.26 448.962 2806.58 446.183C2805.9 443.39 2804.96 440.889 2803.74 438.682C2802.53 436.475 2801.17 434.754 2799.66 433.519L2800.56 430.902C2802.6 432.029 2804.54 433.912 2806.38 436.552C2808.23 439.191 2809.61 442.101 2810.52 445.28C2811.45 448.46 2811.91 451.863 2811.91 455.491Z" fill="black" fill-opacity="0.2"/>
<path d="M2114.99 1311.15C2114.64 1315.98 2112.85 1319.79 2109.62 1322.57C2106.41 1325.35 2102.17 1326.74 2096.9 1326.74C2091.14 1326.74 2086.6 1324.8 2083.28 1320.93C2079.99 1317.04 2078.35 1311.71 2078.35 1304.94V1302.2C2078.35 1297.87 2079.11 1294.07 2080.63 1290.77C2082.15 1287.48 2084.32 1284.96 2087.14 1283.21C2089.98 1281.44 2093.28 1280.56 2097.02 1280.56C2102.21 1280.56 2106.39 1281.94 2109.56 1284.72C2112.73 1287.5 2114.56 1291.4 2115.05 1296.42H2105.79C2105.56 1293.52 2104.75 1291.42 2103.35 1290.13C2101.97 1288.81 2099.86 1288.15 2097.02 1288.15C2093.94 1288.15 2091.62 1289.26 2090.08 1291.48C2088.55 1293.69 2087.77 1297.11 2087.73 1301.76V1305.16C2087.73 1310.02 2088.46 1313.57 2089.92 1315.81C2091.4 1318.05 2093.73 1319.17 2096.9 1319.17C2099.76 1319.17 2101.89 1318.53 2103.29 1317.23C2104.71 1315.91 2105.52 1313.89 2105.73 1311.15H2114.99ZM2129.9 1326.12H2120.95V1278.7H2129.9V1326.12ZM2135.89 1309.11C2135.89 1305.8 2136.53 1302.84 2137.8 1300.25C2139.08 1297.66 2140.91 1295.65 2143.3 1294.23C2145.71 1292.81 2148.49 1292.1 2151.66 1292.1C2156.17 1292.1 2159.84 1293.48 2162.68 1296.24C2165.54 1299 2167.14 1302.74 2167.47 1307.47L2167.53 1309.76C2167.53 1314.88 2166.1 1319 2163.24 1322.11C2160.38 1325.19 2156.54 1326.74 2151.72 1326.74C2146.91 1326.74 2143.06 1325.19 2140.18 1322.11C2137.32 1319.02 2135.89 1314.82 2135.89 1309.51V1309.11ZM2144.81 1309.76C2144.81 1312.93 2145.41 1315.36 2146.6 1317.04C2147.79 1318.71 2149.5 1319.54 2151.72 1319.54C2153.89 1319.54 2155.57 1318.72 2156.79 1317.08C2158 1315.41 2158.61 1312.75 2158.61 1309.11C2158.61 1306 2158 1303.59 2156.79 1301.89C2155.57 1300.18 2153.87 1299.32 2151.66 1299.32C2149.48 1299.32 2147.79 1300.18 2146.6 1301.89C2145.41 1303.57 2144.81 1306.2 2144.81 1309.76ZM2193.03 1322.72C2190.83 1325.4 2187.78 1326.74 2183.89 1326.74C2180.31 1326.74 2177.57 1325.71 2175.68 1323.65C2173.81 1321.59 2172.85 1318.58 2172.81 1314.61V1292.72H2181.73V1314.3C2181.73 1317.77 2183.32 1319.51 2186.49 1319.51C2189.51 1319.51 2191.59 1318.46 2192.72 1316.37V1292.72H2201.67V1326.12H2193.28L2193.03 1322.72ZM2207.01 1309.17C2207.01 1303.97 2208.18 1299.82 2210.5 1296.73C2212.85 1293.64 2216.05 1292.1 2220.1 1292.1C2223.35 1292.1 2226.04 1293.32 2228.16 1295.74V1278.7H2237.11V1326.12H2229.06L2228.62 1322.57C2226.4 1325.35 2223.54 1326.74 2220.04 1326.74C2216.11 1326.74 2212.95 1325.19 2210.56 1322.11C2208.2 1319 2207.01 1314.69 2207.01 1309.17ZM2215.94 1309.82C2215.94 1312.95 2216.48 1315.35 2217.57 1317.01C2218.66 1318.68 2220.25 1319.51 2222.33 1319.51C2225.08 1319.51 2227.03 1318.35 2228.16 1316.03V1302.84C2227.05 1300.52 2225.12 1299.36 2222.39 1299.36C2218.09 1299.36 2215.94 1302.84 2215.94 1309.82ZM2278.45 1288.67H2264.68V1326.12H2255.42V1288.67H2241.84V1281.17H2278.45V1288.67ZM2292.59 1326.12H2283.63V1292.72H2292.59V1326.12ZM2283.11 1284.07C2283.11 1282.74 2283.55 1281.64 2284.44 1280.77C2285.34 1279.91 2286.57 1279.47 2288.11 1279.47C2289.63 1279.47 2290.85 1279.91 2291.75 1280.77C2292.66 1281.64 2293.11 1282.74 2293.11 1284.07C2293.11 1285.43 2292.65 1286.54 2291.72 1287.41C2290.82 1288.27 2289.61 1288.71 2288.11 1288.71C2286.61 1288.71 2285.39 1288.27 2284.47 1287.41C2283.56 1286.54 2283.11 1285.43 2283.11 1284.07ZM2308.33 1292.72L2308.61 1296.45C2310.98 1293.55 2314.18 1292.1 2318.21 1292.1C2322.51 1292.1 2325.46 1293.8 2327.07 1297.19C2329.42 1293.8 2332.76 1292.1 2337.1 1292.1C2340.72 1292.1 2343.42 1293.16 2345.19 1295.28C2346.96 1297.38 2347.85 1300.55 2347.85 1304.79V1326.12H2338.89V1304.82C2338.89 1302.93 2338.52 1301.55 2337.78 1300.68C2337.04 1299.8 2335.73 1299.36 2333.86 1299.36C2331.19 1299.36 2329.33 1300.63 2328.3 1303.18L2328.34 1326.12H2319.41V1304.85C2319.41 1302.92 2319.03 1301.52 2318.27 1300.65C2317.51 1299.79 2316.21 1299.36 2314.38 1299.36C2311.85 1299.36 2310.02 1300.4 2308.89 1302.5V1326.12H2299.97V1292.72H2308.33ZM2370.1 1326.74C2365.2 1326.74 2361.21 1325.24 2358.13 1322.23C2355.06 1319.23 2353.53 1315.22 2353.53 1310.22V1309.36C2353.53 1306 2354.17 1303.01 2355.47 1300.37C2356.77 1297.72 2358.6 1295.68 2360.97 1294.26C2363.35 1292.82 2366.07 1292.1 2369.12 1292.1C2373.68 1292.1 2377.28 1293.54 2379.89 1296.42C2382.52 1299.3 2383.84 1303.39 2383.84 1308.68V1312.32H2362.57C2362.86 1314.5 2363.72 1316.25 2365.16 1317.57C2366.62 1318.89 2368.47 1319.54 2370.69 1319.54C2374.13 1319.54 2376.81 1318.3 2378.75 1315.81L2383.13 1320.72C2381.79 1322.61 2379.98 1324.09 2377.7 1325.16C2375.41 1326.21 2372.88 1326.74 2370.1 1326.74ZM2369.08 1299.32C2367.31 1299.32 2365.87 1299.92 2364.76 1301.11C2363.67 1302.31 2362.97 1304.02 2362.66 1306.24H2375.07V1305.53C2375.03 1303.55 2374.5 1302.03 2373.47 1300.96C2372.44 1299.87 2370.98 1299.32 2369.08 1299.32ZM2111.96 1360.05H2097.52V1400.12H2091.62V1360.05H2077.2V1355.17H2111.96V1360.05ZM2123.94 1400.12H2118.23V1366.72H2123.94V1400.12ZM2117.77 1357.86C2117.77 1356.93 2118.05 1356.15 2118.6 1355.51C2119.18 1354.87 2120.02 1354.56 2121.13 1354.56C2122.24 1354.56 2123.09 1354.87 2123.66 1355.51C2124.24 1356.15 2124.53 1356.93 2124.53 1357.86C2124.53 1358.78 2124.24 1359.56 2123.66 1360.17C2123.09 1360.79 2122.24 1361.1 2121.13 1361.1C2120.02 1361.1 2119.18 1360.79 2118.6 1360.17C2118.05 1359.56 2117.77 1358.78 2117.77 1357.86ZM2138.48 1366.72L2138.64 1370.42C2141.08 1367.54 2144.39 1366.1 2148.55 1366.1C2153.22 1366.1 2156.4 1367.89 2158.08 1371.47C2159.2 1369.87 2160.64 1368.57 2162.41 1367.58C2164.2 1366.59 2166.31 1366.1 2168.73 1366.1C2176.06 1366.1 2179.79 1369.98 2179.91 1377.74V1400.12H2174.2V1378.08C2174.2 1375.69 2173.65 1373.91 2172.56 1372.74C2171.47 1371.54 2169.64 1370.95 2167.07 1370.95C2164.95 1370.95 2163.19 1371.59 2161.79 1372.86C2160.39 1374.12 2159.58 1375.81 2159.35 1377.96V1400.12H2153.61V1378.23C2153.61 1373.38 2151.23 1370.95 2146.48 1370.95C2142.73 1370.95 2140.17 1372.54 2138.79 1375.73V1400.12H2133.08V1366.72H2138.48ZM2202.41 1400.74C2197.89 1400.74 2194.2 1399.26 2191.36 1396.29C2188.52 1393.31 2187.1 1389.33 2187.1 1384.35V1383.3C2187.1 1379.98 2187.73 1377.03 2188.99 1374.44C2190.26 1371.82 2192.03 1369.78 2194.3 1368.32C2196.58 1366.84 2199.05 1366.1 2201.7 1366.1C2206.05 1366.1 2209.42 1367.53 2211.83 1370.39C2214.24 1373.25 2215.44 1377.35 2215.44 1382.68V1385.06H2192.81C2192.9 1388.35 2193.85 1391.01 2195.68 1393.05C2197.54 1395.07 2199.88 1396.08 2202.72 1396.08C2204.74 1396.08 2206.45 1395.66 2207.85 1394.84C2209.25 1394.02 2210.47 1392.93 2211.52 1391.57L2215.01 1394.29C2212.21 1398.59 2208.01 1400.74 2202.41 1400.74ZM2201.7 1370.79C2199.4 1370.79 2197.46 1371.64 2195.9 1373.32C2194.34 1374.99 2193.37 1377.34 2193 1380.36H2209.73V1379.93C2209.57 1377.03 2208.78 1374.79 2207.38 1373.2C2205.98 1371.6 2204.09 1370.79 2201.7 1370.79ZM2238.22 1371.84C2237.36 1371.7 2236.42 1371.63 2235.41 1371.63C2231.67 1371.63 2229.13 1373.22 2227.79 1376.41V1400.12H2222.08V1366.72H2227.64L2227.73 1370.58C2229.6 1367.59 2232.26 1366.1 2235.69 1366.1C2236.8 1366.1 2237.65 1366.24 2238.22 1366.53V1371.84ZM2262.95 1391.26C2262.95 1389.72 2262.36 1388.52 2261.19 1387.68C2260.04 1386.81 2258.01 1386.07 2255.11 1385.46C2252.23 1384.84 2249.93 1384.1 2248.23 1383.23C2246.54 1382.37 2245.28 1381.34 2244.46 1380.15C2243.66 1378.95 2243.26 1377.53 2243.26 1375.89C2243.26 1373.15 2244.41 1370.83 2246.71 1368.94C2249.04 1367.05 2252 1366.1 2255.6 1366.1C2259.39 1366.1 2262.46 1367.08 2264.8 1369.03C2267.17 1370.99 2268.35 1373.49 2268.35 1376.54H2262.61C2262.61 1374.97 2261.94 1373.62 2260.61 1372.49C2259.29 1371.36 2257.62 1370.79 2255.6 1370.79C2253.53 1370.79 2251.9 1371.25 2250.73 1372.15C2249.55 1373.06 2248.97 1374.24 2248.97 1375.7C2248.97 1377.08 2249.51 1378.12 2250.6 1378.82C2251.69 1379.52 2253.66 1380.19 2256.5 1380.83C2259.36 1381.46 2261.68 1382.23 2263.45 1383.11C2265.22 1384 2266.52 1385.07 2267.37 1386.32C2268.23 1387.56 2268.66 1389.07 2268.66 1390.86C2268.66 1393.84 2267.47 1396.24 2265.08 1398.05C2262.69 1399.84 2259.6 1400.74 2255.79 1400.74C2253.11 1400.74 2250.75 1400.26 2248.69 1399.32C2246.63 1398.37 2245.02 1397.05 2243.84 1395.37C2242.69 1393.66 2242.11 1391.82 2242.11 1389.84H2247.82C2247.93 1391.75 2248.69 1393.28 2250.11 1394.41C2251.55 1395.52 2253.44 1396.08 2255.79 1396.08C2257.95 1396.08 2259.68 1395.64 2260.98 1394.78C2262.29 1393.89 2262.95 1392.72 2262.95 1391.26ZM2318.09 1379.34H2298.61V1395.27H2321.23V1400.12H2292.68V1355.17H2320.93V1360.05H2298.61V1374.5H2318.09V1379.34ZM2337.94 1392.37L2346.21 1366.72H2352.04L2340.07 1400.12H2335.71L2323.61 1366.72H2329.45L2337.94 1392.37ZM2370.97 1400.74C2366.44 1400.74 2362.76 1399.26 2359.92 1396.29C2357.08 1393.31 2355.66 1389.33 2355.66 1384.35V1383.3C2355.66 1379.98 2356.28 1377.03 2357.54 1374.44C2358.81 1371.82 2360.58 1369.78 2362.85 1368.32C2365.13 1366.84 2367.6 1366.1 2370.26 1366.1C2374.6 1366.1 2377.98 1367.53 2380.38 1370.39C2382.79 1373.25 2383.99 1377.35 2383.99 1382.68V1385.06H2361.37C2361.45 1388.35 2362.41 1391.01 2364.24 1393.05C2366.09 1395.07 2368.44 1396.08 2371.28 1396.08C2373.29 1396.08 2375 1395.66 2376.4 1394.84C2377.8 1394.02 2379.02 1392.93 2380.07 1391.57L2383.56 1394.29C2380.76 1398.59 2376.57 1400.74 2370.97 1400.74ZM2370.26 1370.79C2367.95 1370.79 2366.02 1371.64 2364.45 1373.32C2362.89 1374.99 2361.92 1377.34 2361.55 1380.36H2378.28V1379.93C2378.12 1377.03 2377.34 1374.79 2375.94 1373.2C2374.54 1371.6 2372.64 1370.79 2370.26 1370.79ZM2406.78 1371.84C2405.91 1371.7 2404.98 1371.63 2403.97 1371.63C2400.22 1371.63 2397.68 1373.22 2396.34 1376.41V1400.12H2390.63V1366.72H2396.19L2396.28 1370.58C2398.15 1367.59 2400.81 1366.1 2404.25 1366.1C2405.36 1366.1 2406.2 1366.24 2406.78 1366.53V1371.84ZM2423.54 1391.75L2431.32 1366.72H2437.43L2424 1405.28C2421.92 1410.83 2418.62 1413.61 2414.09 1413.61L2413.01 1413.52L2410.88 1413.12V1408.49L2412.43 1408.61C2414.36 1408.61 2415.86 1408.22 2416.93 1407.44C2418.02 1406.65 2418.92 1405.22 2419.62 1403.15L2420.89 1399.75L2408.97 1366.72H2415.2L2423.54 1391.75ZM2472.13 1392.25L2478.55 1366.72H2484.26L2474.54 1400.12H2469.91L2461.79 1374.81L2453.89 1400.12H2449.26L2439.56 1366.72H2445.24L2451.82 1391.72L2459.6 1366.72H2464.2L2472.13 1392.25ZM2495.81 1370.76C2498.34 1367.65 2501.63 1366.1 2505.69 1366.1C2512.75 1366.1 2516.31 1370.08 2516.37 1378.05V1400.12H2510.66V1378.02C2510.64 1375.61 2510.08 1373.83 2508.99 1372.68C2507.92 1371.52 2506.24 1370.95 2503.96 1370.95C2502.11 1370.95 2500.48 1371.44 2499.08 1372.43C2497.68 1373.42 2496.59 1374.71 2495.81 1376.32V1400.12H2490.1V1352.7H2495.81V1370.76ZM2538.78 1400.74C2534.25 1400.74 2530.57 1399.26 2527.73 1396.29C2524.89 1393.31 2523.47 1389.33 2523.47 1384.35V1383.3C2523.47 1379.98 2524.1 1377.03 2525.35 1374.44C2526.63 1371.82 2528.4 1369.78 2530.66 1368.32C2532.95 1366.84 2535.41 1366.1 2538.07 1366.1C2542.41 1366.1 2545.79 1367.53 2548.2 1370.39C2550.6 1373.25 2551.81 1377.35 2551.81 1382.68V1385.06H2529.18C2529.26 1388.35 2530.22 1391.01 2532.05 1393.05C2533.9 1395.07 2536.25 1396.08 2539.09 1396.08C2541.11 1396.08 2542.81 1395.66 2544.21 1394.84C2545.61 1394.02 2546.84 1392.93 2547.89 1391.57L2551.37 1394.29C2548.58 1398.59 2544.38 1400.74 2538.78 1400.74ZM2538.07 1370.79C2535.76 1370.79 2533.83 1371.64 2532.27 1373.32C2530.7 1374.99 2529.73 1377.34 2529.36 1380.36H2546.1V1379.93C2545.93 1377.03 2545.15 1374.79 2543.75 1373.2C2542.35 1371.6 2540.46 1370.79 2538.07 1370.79ZM2574.59 1371.84C2573.73 1371.7 2572.79 1371.63 2571.78 1371.63C2568.03 1371.63 2565.49 1373.22 2564.16 1376.41V1400.12H2558.44V1366.72H2564L2564.09 1370.58C2565.97 1367.59 2568.62 1366.1 2572.06 1366.1C2573.17 1366.1 2574.01 1366.24 2574.59 1366.53V1371.84ZM2593.11 1400.74C2588.58 1400.74 2584.9 1399.26 2582.06 1396.29C2579.22 1393.31 2577.8 1389.33 2577.8 1384.35V1383.3C2577.8 1379.98 2578.43 1377.03 2579.68 1374.44C2580.96 1371.82 2582.73 1369.78 2584.99 1368.32C2587.28 1366.84 2589.75 1366.1 2592.4 1366.1C2596.74 1366.1 2600.12 1367.53 2602.53 1370.39C2604.94 1373.25 2606.14 1377.35 2606.14 1382.68V1385.06H2583.51C2583.59 1388.35 2584.55 1391.01 2586.38 1393.05C2588.23 1395.07 2590.58 1396.08 2593.42 1396.08C2595.44 1396.08 2597.15 1395.66 2598.55 1394.84C2599.94 1394.02 2601.17 1392.93 2602.22 1391.57L2605.71 1394.29C2602.91 1398.59 2598.71 1400.74 2593.11 1400.74ZM2592.4 1370.79C2590.1 1370.79 2588.16 1371.64 2586.6 1373.32C2585.03 1374.99 2584.07 1377.34 2583.7 1380.36H2600.43V1379.93C2600.26 1377.03 2599.48 1374.79 2598.08 1373.2C2596.68 1371.6 2594.79 1370.79 2592.4 1370.79Z" fill="black"/>
<circle cx="1021.82" cy="742.897" r="71.1257" fill="#BB9200"/>
<path d="M269.01 742.897C269.01 782.179 237.166 814.023 197.884 814.023C158.603 814.023 126.759 782.179 126.759 742.897C126.759 719.012 124.612 684.67 142.672 671.772C157.072 671.771 182.488 671.771 197.884 671.771C237.166 671.771 269.01 703.616 269.01 742.897Z" fill="black"/>
<rect x="89.1997" y="782.046" width="67.8675" height="219.37" transform="rotate(-38 89.1997 782.046)" fill="black"/>
<path d="M0.428955 814.023C0.428955 892.586 61.7434 957.792 142.68 956.275C223.617 954.758 224.364 954.907 224.364 954.907L142.68 827.703V671.772C64.1171 671.772 0.428955 735.46 0.428955 814.023Z" fill="#FFE600"/>
<rect x="476.526" y="780.684" width="67.8675" height="219.37" transform="rotate(-38 476.526 780.684)" fill="#BB9200"/>
<path d="M387.754 812.661C387.754 891.224 451.442 954.912 530.005 954.912V670.409C451.442 670.409 387.754 734.097 387.754 812.661Z" fill="#FFC700"/>
<circle cx="601.131" cy="741.535" r="71.1257" fill="#BB9200"/>
<path d="M1222.58 371.439L1235.23 369.615L1289.08 215.704H1325.43L1378.93 369.615L1391.57 371.439V392.714H1331.27V371.439L1343.55 369.251L1335.77 344.936H1278.38L1270.6 369.251L1282.88 371.439V392.714H1222.58V371.439ZM1286.77 318.798H1327.38L1307.44 256.431H1306.71L1286.77 318.798Z" fill="#FFC700"/>
<path d="M1398.36 388.828V410.225L1379.4 413.872V506.267C1379.4 517.939 1382.52 526.692 1388.76 532.527C1395.08 538.282 1403.71 541.159 1414.65 541.159C1425.76 541.159 1434.47 538.282 1440.79 532.527C1447.11 526.773 1450.27 518.02 1450.27 506.267V413.872L1431.43 410.225V388.828H1504.74V410.225L1485.77 413.872V506.267C1485.77 526.124 1479.21 541.443 1466.08 552.222C1453.03 563.002 1435.89 568.391 1414.65 568.391C1393.5 568.391 1376.4 563.002 1363.35 552.222C1350.38 541.443 1343.9 526.124 1343.9 506.267V413.872L1325.05 410.225V388.828H1343.9H1379.4H1398.36Z" fill="#BB9200"/>
<path d="M41.9845 406.396L54.6281 404.572L108.485 250.661H144.836L198.328 404.572L210.971 406.396V427.671H150.671V406.396L162.95 404.208L155.169 379.893H97.7866L90.006 404.208L102.285 406.396V427.671H41.9845V406.396ZM106.175 353.755H146.781L126.843 291.388H126.113L106.175 353.755Z" fill="#FFC700"/>
<path d="M193.218 209.811L199.295 230.327L182.146 239.21L208.388 327.801C211.703 338.991 217.18 346.498 224.822 350.321C232.517 354.043 241.611 354.35 252.102 351.242C262.748 348.089 270.285 342.855 274.712 335.542C279.139 328.229 279.684 318.939 276.346 307.671L250.104 219.08L231.001 220.935L224.924 200.419L295.214 179.598L301.291 200.114L284.142 208.998L310.384 297.588C316.023 316.628 314.079 333.18 304.552 347.244C295.102 361.286 280.197 371.322 259.836 377.353C239.554 383.361 221.626 383.051 206.053 376.421C190.557 369.769 179.99 356.923 174.35 337.883L148.108 249.293L129.005 251.147L122.928 230.632L140.996 225.28L175.033 215.197L193.218 209.811Z" fill="#BB9200"/>
<path d="M935.567 373.895L948.211 372.071L1002.07 218.159H1038.42L1091.91 372.071L1104.55 373.895V395.17H1044.25V373.895L1056.53 371.706L1048.75 347.392H991.369L983.588 371.706L995.867 373.895V395.17H935.567V373.895ZM999.758 321.253H1040.36L1020.43 258.886H1019.7L999.758 321.253Z" fill="#FFC700"/>
<path d="M1004.25 395.289V416.686L985.284 420.333V512.728C985.284 524.399 988.404 533.153 994.645 538.988C1000.97 544.743 1009.6 547.62 1020.54 547.62C1031.64 547.62 1040.36 544.743 1046.68 538.988C1053 533.234 1056.16 524.48 1056.16 512.728V420.333L1037.32 416.686V395.289H1110.63V416.686L1091.66 420.333V512.728C1091.66 532.585 1085.1 547.904 1071.97 558.683C1058.92 569.463 1041.77 574.852 1020.54 574.852C999.386 574.852 982.285 569.463 969.236 558.683C956.268 547.904 949.784 532.585 949.784 512.728V420.333L930.94 416.686V395.289H949.784H985.284H1004.25Z" fill="#BB9200"/>
<path d="M525.089 377.502L537.733 375.678L591.59 221.766H627.94L681.432 375.678L694.076 377.502V398.777H633.776V377.502L646.055 375.313L638.274 350.999H580.891L573.111 375.313L585.39 377.502V398.777H525.089V377.502ZM589.28 324.861H629.885L609.947 262.493H609.218L589.28 324.861Z" fill="#FFC700"/>
<path d="M675.495 189.042V198.631L666.996 200.266V241.675C666.996 246.906 668.394 250.829 671.191 253.445C674.024 256.024 677.893 257.313 682.797 257.313C687.773 257.313 691.678 256.024 694.511 253.445C697.344 250.865 698.761 246.942 698.761 241.675V200.266L690.316 198.631V189.042H723.171V198.631L714.671 200.266V241.675C714.671 250.575 711.729 257.44 705.844 262.271C699.996 267.102 692.314 269.518 682.797 269.518C673.316 269.518 665.652 267.102 659.803 262.271C653.991 257.44 651.086 250.575 651.086 241.675V200.266L642.64 198.631V189.042H651.086H666.996H675.495Z" fill="#BB9200"/>
<path d="M508.587 35.806L510.485 35.5322L518.571 12.4261H524.028L532.058 35.5322L533.957 35.806V39H524.904V35.806L526.747 35.4775L525.579 31.8272H516.965L515.796 35.4775L517.64 35.806V39H508.587V35.806ZM518.224 27.9032H524.32L521.327 18.5403H521.217L518.224 27.9032ZM535.453 22.4643V19.2521H543.192L543.447 21.5517C544.031 20.7 544.731 20.043 545.546 19.5806C546.361 19.1182 547.31 18.887 548.393 18.887C550.839 18.887 552.737 19.8422 554.088 21.7525C555.438 23.6628 556.114 26.1754 556.114 29.2903V29.6736C556.114 32.5938 555.438 34.9421 554.088 36.7186C552.737 38.495 550.851 39.3833 548.43 39.3833C547.396 39.3833 546.477 39.1947 545.674 38.8175C544.871 38.4281 544.183 37.8623 543.611 37.1201V42.8328L546.185 43.3803V46.5926H535.727V43.3803L538.3 42.8328V23.0118L535.453 22.4643ZM550.784 29.2903C550.784 27.4287 550.474 25.9199 549.853 24.764C549.233 23.608 548.284 23.0301 547.006 23.0301C546.203 23.0301 545.516 23.1944 544.944 23.5229C544.384 23.8514 543.94 24.3198 543.611 24.9282V33.5794C543.94 34.1391 544.384 34.5649 544.944 34.8569C545.516 35.149 546.215 35.295 547.043 35.295C548.332 35.295 549.275 34.79 549.872 33.7801C550.48 32.7702 550.784 31.4014 550.784 29.6736V29.2903ZM558.085 22.4643V19.2521H565.823L566.079 21.5517C566.663 20.7 567.363 20.043 568.178 19.5806C568.993 19.1182 569.942 18.887 571.025 18.887C573.471 18.887 575.369 19.8422 576.719 21.7525C578.07 23.6628 578.745 26.1754 578.745 29.2903V29.6736C578.745 32.5938 578.07 34.9421 576.719 36.7186C575.369 38.495 573.483 39.3833 571.061 39.3833C570.027 39.3833 569.109 39.1947 568.306 38.8175C567.502 38.4281 566.815 37.8623 566.243 37.1201V42.8328L568.817 43.3803V46.5926H558.359V43.3803L560.932 42.8328V23.0118L558.085 22.4643ZM573.416 29.2903C573.416 27.4287 573.106 25.9199 572.485 24.764C571.865 23.608 570.915 23.0301 569.638 23.0301C568.835 23.0301 568.147 23.1944 567.575 23.5229C567.016 23.8514 566.572 24.3198 566.243 24.9282V33.5794C566.572 34.1391 567.016 34.5649 567.575 34.8569C568.147 35.149 568.847 35.295 569.674 35.295C570.964 35.295 571.907 34.79 572.503 33.7801C573.112 32.7702 573.416 31.4014 573.416 29.6736V29.2903ZM597.234 26.0416H593.657L593.091 23.5776C592.726 23.2856 592.263 23.0423 591.704 22.8476C591.156 22.6529 590.548 22.5556 589.879 22.5556C588.942 22.5556 588.199 22.7685 587.652 23.1944C587.104 23.608 586.831 24.1313 586.831 24.764C586.831 25.3602 587.092 25.859 587.615 26.2606C588.139 26.6499 589.185 26.9967 590.755 27.3009C593.2 27.7876 595.013 28.5055 596.194 29.4546C597.374 30.3915 597.964 31.6873 597.964 33.3421C597.964 35.1186 597.197 36.5726 595.664 37.7042C594.143 38.8236 592.136 39.3833 589.641 39.3833C588.12 39.3833 586.721 39.1643 585.444 38.7262C584.178 38.276 583.053 37.6372 582.067 36.8098L582.012 32.3748H585.736L586.466 34.9482C586.782 35.2159 587.214 35.4167 587.761 35.5505C588.309 35.6722 588.881 35.733 589.477 35.733C590.56 35.733 591.381 35.5383 591.941 35.149C592.513 34.7596 592.799 34.2303 592.799 33.5611C592.799 32.9771 592.513 32.4721 591.941 32.0462C591.369 31.6204 590.317 31.2432 588.784 30.9147C586.46 30.4401 584.701 29.7405 583.509 28.8158C582.329 27.8789 581.738 26.6073 581.738 25.0012C581.738 23.3464 582.42 21.9228 583.783 20.7304C585.145 19.5258 587.086 18.9235 589.605 18.9235C591.138 18.9235 592.586 19.1304 593.949 19.5441C595.324 19.9578 596.4 20.4871 597.179 21.132L597.234 26.0416ZM617.383 14.4155V19.2521H620.851V22.9936H617.383V33.0501C617.383 33.8166 617.542 34.3642 617.858 34.6927C618.174 35.0212 618.6 35.1855 619.135 35.1855C619.5 35.1855 619.817 35.1733 620.085 35.149C620.364 35.1125 620.675 35.0577 621.015 34.9847L621.472 38.8357C620.875 39.0183 620.285 39.1521 619.701 39.2373C619.117 39.3346 618.485 39.3833 617.803 39.3833C615.966 39.3833 614.548 38.8783 613.551 37.8684C612.565 36.8585 612.072 35.2585 612.072 33.0683V22.9936H609.17V19.2521H612.072V14.4155H617.383ZM622.913 28.9435C622.913 25.999 623.735 23.5898 625.377 21.716C627.032 19.83 629.314 18.887 632.222 18.887C635.142 18.887 637.423 19.8239 639.066 21.6977C640.721 23.5715 641.548 25.9868 641.548 28.9435V29.3268C641.548 32.2957 640.721 34.717 639.066 36.5908C637.423 38.4525 635.154 39.3833 632.258 39.3833C629.326 39.3833 627.032 38.4525 625.377 36.5908C623.735 34.717 622.913 32.2957 622.913 29.3268V28.9435ZM628.243 29.3268C628.243 31.1276 628.559 32.5755 629.192 33.6706C629.825 34.7535 630.847 35.295 632.258 35.295C633.633 35.295 634.637 34.7474 635.27 33.6524C635.915 32.5573 636.237 31.1154 636.237 29.3268V28.9435C636.237 27.1914 635.915 25.7617 635.27 24.6545C634.625 23.5472 633.609 22.9936 632.222 22.9936C630.835 22.9936 629.825 23.5472 629.192 24.6545C628.559 25.7617 628.243 27.1914 628.243 28.9435V29.3268ZM660.895 14.4155V19.2521H664.362V22.9936H660.895V33.0501C660.895 33.8166 661.053 34.3642 661.369 34.6927C661.685 35.0212 662.111 35.1855 662.647 35.1855C663.012 35.1855 663.328 35.1733 663.596 35.149C663.876 35.1125 664.186 35.0577 664.527 34.9847L664.983 38.8357C664.387 39.0183 663.796 39.1521 663.212 39.2373C662.628 39.3346 661.996 39.3833 661.314 39.3833C659.477 39.3833 658.059 38.8783 657.062 37.8684C656.076 36.8585 655.583 35.2585 655.583 33.0683V22.9936H652.681V19.2521H655.583V14.4155H660.895ZM666.68 35.806L669.254 35.2585V14.2877L666.406 13.7402V10.5279H674.565V21.7707C675.185 20.8582 675.946 20.1525 676.846 19.6536C677.747 19.1426 678.744 18.887 679.839 18.887C681.908 18.887 683.526 19.5745 684.694 20.9494C685.874 22.3122 686.465 24.4233 686.465 27.2826V35.2585L689.02 35.806V39H678.836V35.806L681.135 35.2585V27.2461C681.135 25.713 680.861 24.6301 680.314 23.9974C679.779 23.3525 678.975 23.0301 677.905 23.0301C677.163 23.0301 676.512 23.1639 675.952 23.4316C675.404 23.6993 674.942 24.0765 674.565 24.5632V35.2585L676.864 35.806V39H666.68V35.806ZM700.007 39.3833C697.16 39.3833 694.885 38.4707 693.181 36.6456C691.478 34.8204 690.626 32.5025 690.626 29.6918V28.9618C690.626 26.0294 691.429 23.6141 693.035 21.716C694.653 19.8179 696.819 18.8749 699.533 18.887C702.197 18.887 704.266 19.6901 705.738 21.2962C707.21 22.9023 707.946 25.0742 707.946 27.8119V30.7139H696.156L696.12 30.8234C696.217 32.1253 696.649 33.1961 697.415 34.0356C698.194 34.8752 699.247 35.295 700.573 35.295C701.753 35.295 702.733 35.1794 703.511 34.9482C704.29 34.7049 705.142 34.3277 706.067 33.8166L707.508 37.1019C706.693 37.7467 705.635 38.2882 704.333 38.7262C703.043 39.1643 701.601 39.3833 700.007 39.3833ZM699.533 22.9936C698.547 22.9936 697.768 23.3708 697.196 24.1252C696.625 24.8796 696.272 25.8712 696.138 27.1001L696.193 27.1914H702.727V26.7169C702.727 25.5853 702.459 24.6849 701.923 24.0157C701.4 23.3343 700.603 22.9936 699.533 22.9936ZM508.587 71.4643V68.2521H516.326L516.581 70.5517C517.165 69.7 517.865 69.043 518.68 68.5806C519.495 68.1182 520.444 67.887 521.527 67.887C523.973 67.887 525.871 68.8422 527.222 70.7525C528.572 72.6628 529.248 75.1754 529.248 78.2903V78.6736C529.248 81.5938 528.572 83.9421 527.222 85.7186C525.871 87.495 523.985 88.3833 521.564 88.3833C520.53 88.3833 519.611 88.1947 518.808 87.8175C518.005 87.4281 517.317 86.8623 516.746 86.1201V91.8328L519.319 92.3803V95.5926H508.861V92.3803L511.434 91.8328V72.0118L508.587 71.4643ZM523.918 78.2903C523.918 76.4287 523.608 74.9199 522.987 73.764C522.367 72.608 521.418 72.0301 520.14 72.0301C519.337 72.0301 518.65 72.1944 518.078 72.5229C517.518 72.8514 517.074 73.3198 516.746 73.9282V82.5794C517.074 83.1391 517.518 83.5649 518.078 83.8569C518.65 84.149 519.349 84.295 520.177 84.295C521.467 84.295 522.41 83.79 523.006 82.7801C523.614 81.7702 523.918 80.4014 523.918 78.6736V78.2903ZM531.62 77.9435C531.62 74.999 532.442 72.5898 534.084 70.716C535.739 68.83 538.02 67.887 540.929 67.887C543.849 67.887 546.13 68.8239 547.773 70.6977C549.428 72.5715 550.255 74.9868 550.255 77.9435V78.3268C550.255 81.2957 549.428 83.717 547.773 85.5908C546.13 87.4525 543.861 88.3833 540.965 88.3833C538.033 88.3833 535.739 87.4525 534.084 85.5908C532.442 83.717 531.62 81.2957 531.62 78.3268V77.9435ZM536.95 78.3268C536.95 80.1276 537.266 81.5755 537.899 82.6706C538.532 83.7535 539.554 84.295 540.965 84.295C542.34 84.295 543.344 83.7474 543.976 82.6524C544.621 81.5573 544.944 80.1154 544.944 78.3268V77.9435C544.944 76.1914 544.621 74.7617 543.976 73.6545C543.332 72.5472 542.316 71.9936 540.929 71.9936C539.541 71.9936 538.532 72.5472 537.899 73.6545C537.266 74.7617 536.95 76.1914 536.95 77.9435V78.3268ZM580.716 71.4643L578.727 71.7198L574.602 88H570.149L566.48 76.2461H566.371L562.702 88H558.267L554.124 71.7198L552.135 71.4643V68.2521H561.078V71.4643L558.979 71.8658L560.841 80.9002H560.95L564.637 68.2521H568.214L571.938 80.9367H572.047L573.89 71.8841L571.773 71.4643V68.2521H580.716V71.4643ZM591.996 88.3833C589.149 88.3833 586.873 87.4707 585.17 85.6456C583.466 83.8204 582.615 81.5025 582.615 78.6918V77.9618C582.615 75.0294 583.418 72.6141 585.024 70.716C586.642 68.8179 588.808 67.8749 591.521 67.887C594.186 67.887 596.254 68.6901 597.727 70.2962C599.199 71.9023 599.935 74.0742 599.935 76.8119V79.7139H588.145L588.108 79.8234C588.206 81.1253 588.637 82.1961 589.404 83.0356C590.183 83.8752 591.235 84.295 592.562 84.295C593.742 84.295 594.721 84.1794 595.5 83.9482C596.279 83.7049 597.13 83.3277 598.055 82.8166L599.497 86.1019C598.682 86.7467 597.623 87.2882 596.321 87.7262C595.032 88.1643 593.59 88.3833 591.996 88.3833ZM591.521 71.9936C590.536 71.9936 589.757 72.3708 589.185 73.1252C588.613 73.8796 588.26 74.8712 588.126 76.1001L588.181 76.1914H594.715V75.7169C594.715 74.5853 594.447 73.6849 593.912 73.0157C593.389 72.3343 592.592 71.9936 591.521 71.9936ZM602.874 84.806L605.429 84.2585V72.0118L602.6 71.4643V68.2521H610.393L610.63 71.1358C611.093 70.1137 611.689 69.3167 612.419 68.7448C613.149 68.173 613.995 67.887 614.956 67.887C615.236 67.887 615.528 67.9114 615.832 67.96C616.148 67.9965 616.41 68.0452 616.617 68.1061L616.051 72.9609L613.861 72.9062C613.082 72.9062 612.437 73.0582 611.926 73.3624C611.415 73.6666 611.026 74.0986 610.758 74.6583V84.2585L613.313 84.806V88H602.874V84.806ZM627.367 77.9435C627.367 74.999 628.188 72.5898 629.831 70.716C631.486 68.83 633.767 67.887 636.675 67.887C639.595 67.887 641.877 68.8239 643.519 70.6977C645.174 72.5715 646.001 74.9868 646.001 77.9435V78.3268C646.001 81.2957 645.174 83.717 643.519 85.5908C641.877 87.4525 639.607 88.3833 636.711 88.3833C633.779 88.3833 631.486 87.4525 629.831 85.5908C628.188 83.717 627.367 81.2957 627.367 78.3268V77.9435ZM632.696 78.3268C632.696 80.1276 633.013 81.5755 633.645 82.6706C634.278 83.7535 635.3 84.295 636.711 84.295C638.086 84.295 639.09 83.7474 639.723 82.6524C640.368 81.5573 640.69 80.1154 640.69 78.3268V77.9435C640.69 76.1914 640.368 74.7617 639.723 73.6545C639.078 72.5472 638.062 71.9936 636.675 71.9936C635.288 71.9936 634.278 72.5472 633.645 73.6545C633.013 74.7617 632.696 76.1914 632.696 77.9435V78.3268ZM648.611 84.806L651.185 84.2585V71.9936H648.246V68.2521H651.185V66.0619C651.185 63.8474 651.824 62.144 653.101 60.9515C654.379 59.7469 656.173 59.1447 658.485 59.1447C658.936 59.1447 659.392 59.1812 659.854 59.2542C660.329 59.315 660.846 59.4063 661.406 59.5279L660.949 63.4885C660.657 63.4398 660.371 63.3972 660.091 63.3607C659.824 63.3242 659.507 63.306 659.142 63.306C658.278 63.306 657.621 63.5432 657.171 64.0178C656.733 64.4923 656.514 65.1737 656.514 66.0619V68.2521H660.438V71.9936H656.514V84.2585L659.088 84.806V88H648.611V84.806ZM522.805 134.5C522.172 135.424 521.387 136.136 520.451 136.635C519.526 137.134 518.467 137.383 517.275 137.383C515.194 137.383 513.564 136.72 512.383 135.394C511.203 134.055 510.613 131.981 510.613 129.17V121.012L508.441 120.464V117.252H510.613H515.942V129.207C515.942 130.642 516.18 131.677 516.654 132.309C517.141 132.93 517.859 133.24 518.808 133.24C519.647 133.24 520.371 133.106 520.98 132.839C521.6 132.559 522.105 132.163 522.495 131.652V121.012L520.159 120.464V117.252H522.495H527.824V133.258L530.215 133.806V137H523.152L522.805 134.5ZM532.022 133.806L534.577 133.258V121.012L531.748 120.464V117.252H539.541L539.779 120.081C540.436 119.071 541.245 118.286 542.206 117.727C543.167 117.167 544.244 116.887 545.437 116.887C547.432 116.887 548.99 117.514 550.109 118.767C551.228 120.02 551.788 121.985 551.788 124.662V133.258L554.343 133.806V137H544.159V133.806L546.44 133.258V124.68C546.44 123.354 546.173 122.417 545.637 121.87C545.102 121.31 544.293 121.03 543.21 121.03C542.504 121.03 541.872 121.176 541.312 121.468C540.752 121.748 540.284 122.15 539.906 122.673V133.258L542.06 133.806V137H532.022V133.806ZM555.876 133.806L558.45 133.258V121.012L555.603 120.464V117.252H563.779V133.258L566.334 133.806V137H555.876V133.806ZM563.779 112.525H558.45V108.528H563.779V112.525ZM568.087 126.944C568.087 123.999 568.908 121.59 570.55 119.716C572.205 117.83 574.487 116.887 577.395 116.887C580.315 116.887 582.596 117.824 584.239 119.698C585.894 121.572 586.721 123.987 586.721 126.944V127.327C586.721 130.296 585.894 132.717 584.239 134.591C582.596 136.452 580.327 137.383 577.431 137.383C574.499 137.383 572.205 136.452 570.55 134.591C568.908 132.717 568.087 130.296 568.087 127.327V126.944ZM573.416 127.327C573.416 129.128 573.732 130.576 574.365 131.671C574.998 132.754 576.02 133.295 577.431 133.295C578.806 133.295 579.81 132.747 580.443 131.652C581.088 130.557 581.41 129.115 581.41 127.327V126.944C581.41 125.191 581.088 123.762 580.443 122.654C579.798 121.547 578.782 120.994 577.395 120.994C576.008 120.994 574.998 121.547 574.365 122.654C573.732 123.762 573.416 125.191 573.416 126.944V127.327ZM588.747 133.806L591.302 133.258V121.012L588.473 120.464V117.252H596.267L596.504 120.081C597.161 119.071 597.97 118.286 598.931 117.727C599.892 117.167 600.969 116.887 602.162 116.887C604.157 116.887 605.715 117.514 606.834 118.767C607.953 120.02 608.513 121.985 608.513 124.662V133.258L611.068 133.806V137H600.884V133.806L603.166 133.258V124.68C603.166 123.354 602.898 122.417 602.362 121.87C601.827 121.31 601.018 121.03 599.935 121.03C599.229 121.03 598.597 121.176 598.037 121.468C597.477 121.748 597.009 122.15 596.632 122.673V133.258L598.785 133.806V137H588.747V133.806Z" fill="black"/>
<g filter="url(#filter0_d)">
<path d="M804.142 1238.38C836.462 1211.26 883.89 1214.57 910.075 1245.78L793.032 1343.99C766.847 1312.78 771.821 1265.5 804.142 1238.38Z" fill="#BB9200"/>
<path d="M1048.26 1238.38C1015.94 1211.26 968.508 1214.57 942.323 1245.78L1059.37 1343.99C1085.55 1312.78 1080.58 1265.5 1048.26 1238.38Z" fill="#BB9200"/>
<circle cx="926.195" cy="1378.18" r="124.846" fill="url(#paint0_linear)"/>
<path d="M890.244 1351.69L926.267 1392.85L989.735 1320.81" stroke="#BB9200" stroke-width="31" stroke-linecap="round" stroke-linejoin="round"/>
</g>
<defs>
<filter id="filter0_d" x="741.62" y="1189.27" width="369.157" height="321.751" filterUnits="userSpaceOnUse" color-interpolation-filters="sRGB">
<feFlood flood-opacity="0" result="BackgroundImageFix"/>
<feColorMatrix in="SourceAlpha" type="matrix" values="0 0 0 0 0 0 0 0 0 0 0 0 0 0 0 0 0 0 127 0"/>
<feOffset dy="4"/>
<feGaussianBlur stdDeviation="2"/>
<feColorMatrix type="matrix" values="0 0 0 0 0 0 0 0 0 0 0 0 0 0 0 0 0 0 0.25 0"/>
<feBlend mode="normal" in2="BackgroundImageFix" result="effect1_dropShadow"/>
<feBlend mode="normal" in="SourceGraphic" in2="effect1_dropShadow" result="shape"/>
</filter>
<linearGradient id="paint0_linear" x1="926.195" y1="1253.33" x2="926.195" y2="1503.02" gradientUnits="userSpaceOnUse">
<stop stop-color="#FFE600"/>
<stop offset="1" stop-color="#C1AE00"/>
</linearGradient>
</defs>
</svg>
